/* XPM */ 
static const unsigned char * rv_icon_small_xpm[] = {
"16 16 152 2",
"  	c None",
"! 	c black",
"# 	c #4451CB",
"$ 	c #7C85DC",
"% 	c #9AA1E5",
"& 	c #99A0E5",
"' 	c #7A83DB",
"( 	c #404DC9",
") 	c #2D3BC3",
"* 	c #9098E3",
"+ 	c #C0C5F4",
", 	c #C0C5F7",
"- 	c #BCBED8",
". 	c #C0C5F5",
"0 	c #8A92E0",
"1 	c #2A39C1",
"2 	c #2433C1",
"3 	c #979EE7",
"4 	c #ABB2F4",
"5 	c #ACB3FA",
"6 	c #ADB4FD",
"7 	c #AEB1E9",
"8 	c #ADA8B3",
"9 	c #AEACD6",
": 	c #AAAFE5",
"; 	c #A3A5BB",
"< 	c #939ADF",
"= 	c #5662D5",
"> 	c #949CF1",
"? 	c #959FFB",
"@ 	c #99A2FE",
"A 	c #9F97C4",
"B 	c #A28F99",
"C 	c #A392AB",
"D 	c #9E90AB",
"E 	c #9E8F9A",
"F 	c #9093BC",
"G 	c #949CF0",
"H 	c #5661D4",
"I 	c #1A29C0",
"J 	c #616DE3",
"K 	c #7D88F7",
"L 	c #818DFE",
"M 	c #8A87CE",
"N 	c #977D8A",
"O 	c #CAC0D5",
"P 	c #7F81D0",
"Q 	c #7778C3",
"R 	c #877AAE",
"S 	c #887798",
"T 	c #7A84E6",
"U 	c #606CDF",
"V 	c #1B2BC6",
"W 	c #4C5BE8",
"X 	c #6674FB",
"Y 	c #6F7DFF",
"Z 	c #7B6693",
"[ 	c #836893",
"] 	c #5D63C7",
"^ 	c #565FC9",
"_ 	c #6D5A86",
"` 	c #715E8F",
"a 	c #7B5E72",
"b 	c #5A6292",
"c 	c #3F4480",
"d 	c #1928BB",
"e 	c #1B2BCA",
"f 	c #2E3FE9",
"g 	c #5161FD",
"h 	c #5B6BFF",
"i 	c #64476C",
"j 	c #534DB6",
"k 	c #3E45BF",
"l 	c #504187",
"m 	c #6A4760",
"n 	c #714D6C",
"o 	c #704C70",
"p 	c #4B56C8",
"q 	c #2C3CDB",
"r 	c #1B2BC8",
"s 	c #1F31E8",
"t 	c #3447FC",
"u 	c #495BFF",
"v 	c #524191",
"w 	c #3C2F74",
"x 	c #382E8B",
"y 	c #4B316C",
"z 	c #926678",
"{ 	c #633856",
"| 	c #4E3980",
"} 	c #3346FC",
"~ 	c #1F31E6",
" !	c #1B2AC5",
"!!	c #1E30E2",
"#!	c #2237F9",
"$!	c #3443F0",
"%!	c #492B6D",
"&!	c #371938",
"'!	c #461E4A",
"(!	c #50254A",
")!	c #4E2346",
"*!	c #391F51",
"+!	c #313FE6",
",!	c #2236F8",
"-!	c #1E30E1",
".!	c #1A2AC3",
"0!	c #1A29BE",
"1!	c #1D2ED6",
"2!	c #2635D4",
"3!	c #421E58",
"4!	c #37153C",
"5!	c #353FD4",
"6!	c #37309E",
"7!	c #332987",
"8!	c #2D30A5",
"9!	c #3144F7",
":!	c #273BFE",
";!	c #2033EF",
"<!	c #1D2DD4",
"=!	c #1B2AC2",
">!	c #316695",
"?!	c #352140",
"@!	c #282CB1",
"A!	c #2E43FF",
"B!	c #3145FF",
"C!	c #2E42FF",
"D!	c #2134F4",
"E!	c #1E30DF",
"F!	c #1B29C1",
"G!	c #1928BA",
"H!	c #212788",
"I!	c #1F41B5",
"J!	c #2033F0",
"K!	c #2236F9",
"L!	c #2438FC",
"M!	c #1E30DE",
"N!	c #1B29C0",
"O!	c #17145E",
"P!	c #1A27B7",
"Q!	c #1C2CCC",
"R!	c #1E30E0",
"S!	c #1C2BCA",
"T!	c #1A27B5",
"U!	c #171357",
"V!	c #150721",
"W!	c #181973",
"X!	c #1A23A5",
"Y!	c #1A28B8",
"Z!	c #1A28B7",
"[!	c #1923A3",
"]!	c #18186F",
"^!	c #15061C",
"                                ",
"          # $ % & ' (           ",
"      ) * + , , - . + 0 1       ",
"    2 3 4 5 6 7 8 9 : ; < 2     ",
"    = > ? @ A B C D E F G H     ",
"  I J K L M N O P Q R S T U I   ",
"  V W X Y Z [ ] ^ _ ` a b c d   ",
"  e f g h i j k l m n o p q r   ",
"  e s t u v w x y z { | } ~ r   ",
"   !!!#!$!%!&!'!(!)!*!+!,!-!.!  ",
"  0!1!2!3!4!5!6!7!8!9!:!;!<!0!  ",
"    =!>!?!@!A!B!B!C!:!D!E!F!    ",
"    G!H!I!J!K!L!L!,!;!M!N!G!    ",
"      O!P!Q!R!~ ~ E!S!T!U!      ",
"        V!W!X!Y!Z![!]!^!        ",
"                                "};