/* XPM */ 
static const unsigned char * rv_icon_xpm[] = {
"32 32 514 2",
"  	c None",
"! 	c black",
"# 	c #1D2DBF",
"$ 	c #1F2FC0",
"% 	c #404DCA",
"& 	c #5E69D3",
"' 	c #6F79D7",
"( 	c #6E78D7",
") 	c #5C67D2",
"* 	c #3C49C9",
"+ 	c #1E2EC0",
", 	c #1E2EBF",
"- 	c #1C2CBE",
". 	c #4653CC",
"0 	c #8E96E1",
"1 	c #C4C8F1",
"2 	c #CED1F4",
"3 	c #CDD1F5",
"4 	c #C0C4F0",
"5 	c #868EDF",
"6 	c #3D4AC9",
"7 	c #3745C7",
"8 	c #99A0E5",
"9 	c #C5C9F2",
": 	c #C5C9F4",
"; 	c #C5C9F5",
"< 	c #C5CAF6",
"= 	c #C5CAF7",
"> 	c #C3C6EA",
"? 	c #C2C5E2",
"@ 	c #C4C8F2",
"A 	c #8E95E1",
"B 	c #2E3DC4",
"C 	c #B6BBEE",
"D 	c #BBC0F2",
"E 	c #BBC1F4",
"F 	c #BBC1F6",
"G 	c #BCC1F8",
"H 	c #BCC2F9",
"I 	c #BCC1F6",
"J 	c #B7B8D7",
"K 	c #B4B5BE",
"L 	c #BBC0F1",
"M 	c #B1B6EA",
"N 	c #4D59C9",
"O 	c #1F2EBF",
"P 	c #1B2BBE",
"Q 	c #626DD5",
"R 	c #B0B6EE",
"S 	c #B0B7F1",
"T 	c #B1B7F4",
"U 	c #B1B8F7",
"V 	c #B2B8F9",
"W 	c #B2B9FB",
"X 	c #B2B9FC",
"Y 	c #B2B9FD",
"Z 	c #AFB4E5",
"[ 	c #AAADBA",
"] 	c #A9ACB7",
"^ 	c #AEB3E2",
"_ 	c #AFB5EB",
"` 	c #ACAECD",
"a 	c #A8A9B3",
"b 	c #ACB0D8",
"c 	c #5763D1",
"d 	c #1A2ABE",
"e 	c #3F4CCB",
"f 	c #A4AAEB",
"g 	c #A5ACF0",
"h 	c #A6ADF4",
"i 	c #A6AEF7",
"j 	c #A7AEFA",
"k 	c #A7AFFD",
"l 	c #A8B0FE",
"m 	c #A8B1FE",
"n 	c #AAAFF3",
"o 	c #AEA9D1",
"p 	c #AFA4AF",
"q 	c #B0A2AE",
"r 	c #ADA2B5",
"s 	c #AAA4C7",
"t 	c #A7ABE7",
"u 	c #A0A4C9",
"v 	c #9D9EB5",
"w 	c #9D9EB6",
"x 	c #A4ABE8",
"y 	c #A3AAEA",
"z 	c #3C4AC9",
"{ 	c #1A2AC0",
"| 	c #8189E2",
"} 	c #99A1ED",
"~ 	c #9AA2F2",
" !	c #9AA3F7",
"!!	c #9BA4FB",
"#!	c #9CA5FE",
"$!	c #9DA7FE",
"%!	c #9FA8FD",
"&!	c #A59FCC",
"'!	c #A895A3",
"(!	c #A3929B",
")!	c #A2929C",
"*!	c #A3929C",
"+!	c #A3929D",
",!	c #A6949F",
"-!	c #A6939C",
".!	c #9B99A1",
"0!	c #9195A1",
"1!	c #9295B9",
"2!	c #99A1EC",
"3!	c #8089E1",
"4!	c #1A2ABF",
"5!	c #1A29BE",
"6!	c #303ECB",
"7!	c #8D96E9",
"8!	c #8E96F0",
"9!	c #8E98F5",
":!	c #8F99FA",
";!	c #909BFE",
"<!	c #939EFF",
"=!	c #969FFC",
">!	c #9D90B7",
"?!	c #9B8693",
"@!	c #98868B",
"A!	c #A38F9B",
"B!	c #A892AD",
"C!	c #9E92C9",
"D!	c #9890C6",
"E!	c #998AAA",
"F!	c #9C8898",
"G!	c #9C8895",
"H!	c #9088A2",
"I!	c #8E98F3",
"J!	c #8D96EF",
"K!	c #8D96E8",
"L!	c #303ECA",
"M!	c #1A29C1",
"N!	c #4552D6",
"O!	c #818BEB",
"P!	c #828CF3",
"Q!	c #838EF9",
"R!	c #848FFD",
"S!	c #8893FF",
"T!	c #8B96FF",
"U!	c #8F88C0",
"V!	c #937B8D",
"W!	c #978187",
"X!	c #C2AAAD",
"Y!	c #E2D6DE",
"Z!	c #A79FD4",
"[!	c #8183D1",
"]!	c #7D82D2",
"^!	c #857FB8",
"_!	c #867DB7",
"`!	c #998199",
"a!	c #8F7883",
"b!	c #8685CC",
"c!	c #838EF8",
"d!	c #828CF2",
"e!	c #818BEA",
"f!	c #4552D5",
"g!	c #1A29C0",
"h!	c #1A2AC6",
"i!	c #4856DC",
"j!	c #7580EE",
"k!	c #7682F5",
"l!	c #7783FC",
"m!	c #7A87FE",
"n!	c #7F8BFF",
"o!	c #818AF0",
"p!	c #8C7289",
"q!	c #896E80",
"r!	c #A88994",
"s!	c #E9E2EB",
"t!	c #9C9EDE",
"u!	c #6A71CF",
"v!	c #6A72CE",
"w!	c #6C72CA",
"x!	c #706FB8",
"y!	c #7170BD",
"z!	c #8D78AB",
"{!	c #8B7082",
"|!	c #816F8E",
"}!	c #7580ED",
"~!	c #6F76C1",
" #	c #747EE4",
"!#	c #4755DA",
"##	c #1A2AC4",
"$#	c #1B2BCB",
"%#	c #3E4DDF",
"&#	c #6976F0",
"'#	c #6B78F7",
"(#	c #6C7AFE",
")#	c #717FFF",
"*#	c #7683FF",
"+#	c #7973BB",
",#	c #876986",
"-#	c #896A81",
".#	c #98788A",
"0#	c #7975C1",
"1#	c #5D65CC",
"2#	c #5C64CC",
"3#	c #6663B0",
"4#	c #77607F",
"5#	c #72618C",
"6#	c #796597",
"7#	c #816378",
"8#	c #7D6575",
"9#	c #6573A6",
":#	c #5C5E86",
";#	c #5B5D7D",
"<#	c #333B8D",
"=#	c #1826B4",
">#	c #1C2CCF",
"?#	c #2C3DE0",
"@#	c #5E6BF1",
"A#	c #5F6EFA",
"B#	c #6271FE",
"C#	c #6876FF",
"D#	c #6C7BFF",
"E#	c #716095",
"F#	c #7B5A76",
"G#	c #7560A7",
"H#	c #755E9A",
"I#	c #4F58C8",
"J#	c #5059C9",
"K#	c #5058C9",
"L#	c #5158C5",
"M#	c #6D526F",
"N#	c #6B537B",
"O#	c #695684",
"P#	c #6F5B96",
"Q#	c #76556B",
"R#	c #785A72",
"S#	c #566394",
"T#	c #515386",
"U#	c #4F517D",
"V#	c #1F2678",
"W#	c #1928BC",
"X#	c #1A29BF",
"Y#	c #1A2AC2",
"Z#	c #1C2DD1",
"[#	c #1E30E1",
"]#	c #4C5BF1",
"^#	c #5463FB",
"_#	c #5868FE",
"`#	c #5E6EFF",
"a#	c #6272FF",
"b#	c #695282",
"c#	c #684559",
"d#	c #5D56BA",
"e#	c #5450BE",
"f#	c #424BC6",
"g#	c #424CC7",
"h#	c #434CC5",
"i#	c #5B4776",
"j#	c #6A444C",
"k#	c #64466A",
"l#	c #6E5180",
"m#	c #6F4D68",
"n#	c #6C4960",
"o#	c #7F5C87",
"p#	c #5359B4",
"q#	c #444776",
"r#	c #4651C0",
"s#	c #1E30DF",
"t#	c #1C2DCF",
"u#	c #1A2AC3",
"v#	c #1C2ED2",
"w#	c #1E30E2",
"x#	c #2E40F0",
"y#	c #4959FB",
"z#	c #4E5FFF",
"{#	c #5465FF",
"|#	c #5969FF",
"}#	c #664E8B",
"~#	c #5A384A",
" $	c #59489D",
"!$	c #4347C3",
"#$	c #3640C3",
"$$	c #3D3EAE",
"%$	c #4D3A78",
"&$	c #543968",
"'$	c #613B4E",
"($	c #7A557C",
")$	c #7F5674",
"*$	c #674054",
"+$	c #6A4466",
",$	c #694776",
"-$	c #4D5DFA",
".$	c #4959FA",
"0$	c #2E40EE",
"1$	c #1E30E0",
"2$	c #1C2DD0",
"3$	c #1A2AC1",
"4$	c #2033EF",
"5$	c #3547FB",
"6$	c #4456FF",
"7$	c #4B5DFF",
"8$	c #5061FF",
"9$	c #6052B1",
":$	c #58334B",
";$	c #46346D",
"<$	c #423CAF",
"=$	c #38349D",
">$	c #413079",
"?$	c #482F65",
"@$	c #4F315C",
"A$	c #7B505F",
"B$	c #BA95A7",
"C$	c #774A58",
"D$	c #5E3554",
"E$	c #5E375D",
"F$	c #513E8A",
"G$	c #4355FE",
"H$	c #3547FA",
"I$	c #2033ED",
"J$	c #2236F9",
"K$	c #3448FE",
"L$	c #4154FF",
"M$	c #4759FF",
"N$	c #4B54E2",
"O$	c #432C67",
"P$	c #2C203D",
"Q$	c #3C2A76",
"R$	c #342C95",
"S$	c #34287F",
"T$	c #382878",
"U$	c #5C3B76",
"V$	c #8F6177",
"W$	c #845464",
"X$	c #5E3255",
"Y$	c #582E55",
"Z$	c #47233E",
"[$	c #414ADC",
"]$	c #3347FE",
"^$	c #2236F8",
"_$	c #1F32EC",
"`$	c #1D2FDE",
"a$	c #1C2CCD",
"b$	c #1D2FDD",
"c$	c #1F32EB",
"d$	c #2135F7",
"e$	c #253AFE",
"f$	c #3246FF",
"g$	c #3D51FF",
"h$	c #424AD7",
"i$	c #4E2650",
"j$	c #241A43",
"k$	c #391B35",
"l$	c #401D48",
"m$	c #42215C",
"n$	c #4E254F",
"o$	c #562943",
"p$	c #5A2D49",
"q$	c #562952",
"r$	c #50244D",
"s$	c #3C1830",
"t$	c #38369E",
"u$	c #3245FF",
"v$	c #2439FE",
"w$	c #2135F6",
"x$	c #1F32EA",
"y$	c #1D2FDC",
"z$	c #1C2BCB",
"{$	c #1B2AC7",
"|$	c #1D2FD9",
"}$	c #1F31E7",
"~$	c #2134F3",
" %	c #2337FD",
"!%	c #2A3EFF",
"#%	c #3537C4",
"$%	c #4A204C",
"%%	c #491D42",
"&%	c #3A152D",
"'%	c #431B3B",
"(%	c #491C3E",
")%	c #4C2046",
"*%	c #4C2148",
"+%	c #4F234F",
",%	c #4B1E45",
"-%	c #3E1636",
".%	c #2B1028",
"0%	c #2F30A1",
"1%	c #3145FF",
"2%	c #293EFF",
"3%	c #2236FC",
"4%	c #2034F2",
"5%	c #1E31E6",
"6%	c #1D2FD7",
"7%	c #1B2AC5",
"8%	c #1C2ED3",
"9%	c #2033EE",
":%	c #2235F9",
";%	c #3128A1",
"<%	c #491B3F",
"=%	c #46183F",
">%	c #350E26",
"?%	c #2F2E97",
"@%	c #3A3ABD",
"A%	c #381E5D",
"B%	c #35102A",
"C%	c #341029",
"D%	c #2E0C24",
"E%	c #240D28",
"F%	c #252170",
"G%	c #3241E1",
"H%	c #3247FF",
"I%	c #2D41FF",
"J%	c #2135F8",
"K%	c #1E2FE0",
"L%	c #1C2BC7",
"M%	c #1D2FDB",
"N%	c #2136E5",
"O%	c #353683",
"P%	c #481A3F",
"Q%	c #471A42",
"R%	c #370F28",
"S%	c #2B1E62",
"T%	c #3549FE",
"U%	c #374AFF",
"V%	c #384BFF",
"W%	c #3748F3",
"X%	c #3543E2",
"Y%	c #3646EC",
"Z%	c #374AFD",
"[%	c #3549FF",
"]%	c #2E42FF",
"^%	c #283CFE",
"_%	c #2236FB",
"`%	c #1C2AC5",
"a%	c #1A28BD",
"b%	c #4087D3",
"c%	c #437C9B",
"d%	c #481D47",
"e%	c #3B102B",
"f%	c #270F2D",
"g%	c #2D3CE9",
"h%	c #3045FF",
"i%	c #3348FF",
"j%	c #3448FF",
"k%	c #2237FC",
"l%	c #2135F4",
"m%	c #1D30DE",
"n%	c #1A29BD",
"o%	c #1B28BD",
"p%	c #3470B1",
"q%	c #0F2534",
"r%	c #25385C",
"s%	c #2A1D33",
"t%	c #252BB0",
"u%	c #263AFE",
"v%	c #2C40FF",
"w%	c #2F43FF",
"x%	c #2E43FF",
"y%	c #1A28BC",
"z%	c #1A28BB",
"{%	c #2A1D6D",
"|%	c #233560",
"}%	c #266498",
"~%	c #1D3F9E",
" &	c #2135F9",
"!&	c #2337FC",
"#&	c #263BFE",
"$&	c #1D2FD5",
"%&	c #1B28BC",
"&&	c #1928B8",
"'&	c #1B26AF",
"(&	c #1C24A5",
")&	c #1D33BE",
"*&	c #1F31E8",
"+&	c #2134F2",
",&	c #1B27B8",
"-&	c #1928BA",
".&	c #1928B6",
"0&	c #171A78",
"1&	c #1A28B9",
"2&	c #1A26B3",
"3&	c #1C2BC6",
"4&	c #1D2FD8",
"5&	c #1C2AC3",
"6&	c #1A26B2",
"7&	c #1928B9",
"8&	c #17176B",
"9&	c #161048",
":&	c #1926B1",
";&	c #1B26B2",
"<&	c #1D2ED2",
"=&	c #1D2FDF",
">&	c #1D2DD0",
"?&	c #1C2AC1",
"@&	c #1B26B1",
"A&	c #1A26B4",
"B&	c #1925AA",
"C&	c #160C38",
"D&	c #150413",
"E&	c #171972",
"F&	c #1927B6",
"G&	c #1A25AE",
"H&	c #1B25AF",
"I&	c #1B27B6",
"J&	c #1B28BB",
"K&	c #1B28BA",
"L&	c #1B27B5",
"M&	c #1B25AE",
"N&	c #1927B3",
"O&	c #171666",
"P&	c #15020B",
"Q&	c #150310",
"R&	c #171252",
"S&	c #181E8A",
"T&	c #1926AF",
"U&	c #1925AC",
"V&	c #181D83",
"W&	c #16104A",
"                                                                ",
"                                                                ",
"                      # $ % & ' ( ) * + ,                       ",
"                  - . 0 1 2 3 3 3 3 2 4 5 6 #                   ",
"              , 7 8 9 : ; < = = > ? < ; : @ A B                 ",
"            - ) C D E F G H H I J K L G F E D M N O             ",
"          P Q R S T U V W X Y Z [ ] ^ W V _ ` a b c ,           ",
"        d e f g h i j k l m n o p q r s t u v w x y z           ",
"        { | } ~  !!!#!$!%!&!'!(!)!*!+!,!-!.!0!1!~ 2!3!4!        ",
"      5!6!7!8!9!:!;!<!=!>!?!@!A!B!C!D!E!F!G!H!I!9!J!K!L!5!      ",
"      M!N!O!P!Q!R!S!T!U!V!W!X!Y!Z![!]!^!_!`!a!b!c!d!e!f!g!      ",
"    5!h!i!j!k!l!m!n!o!p!q!r!s!t!u!v!w!x!y!z!{!|!}!~! #!###5!    ",
"    5!$#%#&#'#(#)#*#+#,#-#.#0#1#2#1#3#4#5#6#7#8#9#:#;#<#=#5!    ",
"    g!>#?#@#A#B#C#D#E#F#G#H#I#J#K#L#M#N#O#P#Q#R#S#T#U#V#W#X#    ",
"    Y#Z#[#]#^#_#`#a#b#c#d#e#f#g#h#i#j#k#l#m#n#o#p#q#r#s#t#g!    ",
"    u#v#w#x#y#z#{#|#}#~# $!$#$$$%$&$'$($)$*$+$,$-$.$0$1$2$3$    ",
"    u#v#w#4$5$6$7$8$9$:$;$<$=$>$?$@$A$B$C$D$E$F$G$H$I$1$2$3$    ",
"    3$Z#1$I$J$K$L$M$N$O$P$Q$R$S$T$U$V$W$X$Y$Z$[$]$^$_$`$t#g!    ",
"    X#a$b$c$d$e$f$g$h$i$j$k$l$m$n$o$p$q$r$s$t$u$v$w$x$y$z$X#    ",
"    5!{$|$}$~$ %!%#%$%%%&%'%(%)%*%+%,%-%.%0%1%2%3%4%5%6%7%5!    ",
"    5!M!8%w#9%:%;%<%=%>%?%@%A%B%C%D%E%F%G%H%I%e$J%I$K%2$g!      ",
"      5!L%M%N%O%P%Q%R%S%T%U%V%W%X%Y%Z%[%H%]%^%_%4%}$|$`%5!      ",
"      5!a%Z#b%c%d%e%f%g%h%H%i%j%j%i%H%h%I%^%k%l%x$m%a$a%5!      ",
"        n%o%p%q%r%s%t%u%!%v%]%w%x%]%v%2%e$_%l%c$[#8%y%n%        ",
"          z%{%|%}%~%4% &!&v$#&#&#&u%v$3%J%4%x$[#$&%&y%          ",
"          &&'&(&)&`$*&I$+&w$J%J$ &J%w$4%I$}$m%Z#,&-&.&          ",
"            0&1&2&3&|$[#5%x$_$I$I$_$x$5%K%4&5&6&7&8&            ",
"              9&:&2&;&5&<&y$=&1$1$`$M%>&?&@&A&B&C&              ",
"                D&E&F&2&G&H&I&J&K&L&M&G&A&N&O&P&                ",
"                    Q&R&S&T&&&F&F&&&U&V&W&P&                    ",
"                                                                ",
"                                                                "};