/* XPM */ 
static char * zc_icon_xpm[] = {
"32 32 5 1",
" 	c None",
"!	c black",
"#	c #C0C0C0",
"$	c white",
"%	c #808080",
" ############################## ",
" #$$$$$$$$$$$$$$$$$$$$$$$$$$$$# ",
"  #$########################%#  ",
"  #$########################%#  ",
"   #$##%%%%%%%%##%%%%%%%%##%#   ",
"   #$##%      $##%####%%$##%#   ",
"   #$##%      $##%###%##%##%#   ",
"   #$##%      $##%###%##%##%#   ",
"   #$##%      $##%###%%%$##%#   ",
"   #$##%      $##%##%%##$##%#   ",
"   #$##%      $##%##%###$##%#   ",
"   #$##%      $##%#%#%##$##%#   ",
"   #$##%      $##%%%####$##%#   ",
"   #$##%$$$$$$$##%$$%$$$$##%#   ",
"   #$######################%#   ",
"   #$######################%#   ",
"   #$##%%%%%%%%##%%%%%%%%##%#   ",
"   #$##%###%%#$##%######$##%#   ",
"   #$##%##%#%%$##%#%%#%%$##%#   ",
"   #$##%#%#%#%%##%%##%##%##%#   ",
"   #$##%##%##%$##%%#####%##%#   ",
"   #$##%#%####$##%%#####%##%#   ",
"   #$##%%###%%$##%#%###%$##%#   ",
"   #$##%%#%###$##%##%#%#$##%#   ",
"   #$##%%%%%##$##%###%##$##%#   ",
"   #$##%#%####$##%######$##%#   ",
"    #%##$$%###$##%####$$##%#    ",
"    ##%###$$$$$##%$$$$###%##    ",
"     ##%%##############%%##     ",
"       ##%%%%%%##%%%%%%##       ",
"         ######%%######         ",
"               ##               "};