/* XPM */ 
static char * zc_icon_small_xpm[] = {
"16 16 5 1",
" 	c None",
"!	c #C0C0C0",
"#	c white",
"$	c black",
"%	c #808080",
"!!!!!!!!!!!!!!!!",
"!##############!",
" !#%%%%!!%%%%%! ",
" !#%  #!!%!%#%! ",
" !#%  #!!%!%%%! ",
" !#%  #!!%%!#%! ",
" !#%###!!%###%! ",
" !#!!!!!!!!!!%! ",
" !#%%%%!!%%%%%! ",
" !#%!%%!!%!!#%! ",
" !#%!%%!!%%!%%! ",
" !#%%%#!!%!%#%! ",
" !#%%##!!%###%! ",
"  !%%%%!!%%%%!  ",
"   !!!!%%!!!!   ",
"       !!       "};