/* XPM */ 
static const unsigned char * zc_icon_xpm[] = {
"32 32 534 2",
"  	c None",
"! 	c black",
"# 	c #50BF09",
"$ 	c #53C00C",
"% 	c #6CCA30",
"& 	c #83D350",
"' 	c #91D763",
"( 	c #90D761",
") 	c #82D24D",
"* 	c #69C92B",
"+ 	c #52C00B",
", 	c #51C00B",
"- 	c #50BF08",
". 	c #71CC36",
"0 	c #A9E185",
"1 	c #D3F1BF",
"2 	c #DAF4C9",
"3 	c #DAF5C9",
"4 	c #CFEFBA",
"5 	c #A3DE7C",
"6 	c #69C92C",
"7 	c #51C00A",
"8 	c #65C726",
"9 	c #B2E490",
": 	c #D3F2BF",
"; 	c #D4F3BF",
"< 	c #D4F5BF",
"= 	c #D5F5BF",
"> 	c #D5F6BF",
"? 	c #D4F4BF",
"@ 	c #D3F1BE",
"A 	c #A9E184",
"B 	c #5EC51C",
"C 	c #82D24E",
"D 	c #C8EDB0",
"E 	c #CDF1B5",
"F 	c #CEF3B4",
"G 	c #CEF5B4",
"H 	c #CFF7B5",
"I 	c #CFF8B5",
"J 	c #D0F8B5",
"K 	c #D0F9B5",
"L 	c #CDF3B4",
"M 	c #CDF1B4",
"N 	c #C5ECAA",
"O 	c #77CE3F",
"P 	c #4FBF07",
"Q 	c #87D455",
"R 	c #C4EDA9",
"S 	c #C5F0A9",
"T 	c #C7F3A9",
"U 	c #C8F6A9",
"V 	c #C9F8A9",
"W 	c #C9F9A9",
"X 	c #CAFAA9",
"Y 	c #CAFBA9",
"Z 	c #CAFCA9",
"[ 	c #C8F8A9",
"] 	c #C6F3A9",
"^ 	c #C3ECA8",
"_ 	c #7ED148",
"` 	c #4EBF06",
"a 	c #6CCA2F",
"b 	c #BEE8A2",
"c 	c #C0ECA2",
"d 	c #C3F0A4",
"e 	c #C3F3A3",
"f 	c #C4F6A2",
"g 	c #C6F7A4",
"h 	c #C4FAA0",
"i 	c #C5FBA2",
"j 	c #C6FBA2",
"k 	c #C6FAA3",
"l 	c #C5FAA2",
"m 	c #C4F8A0",
"n 	c #C3F79F",
"o 	c #C2F4A0",
"p 	c #C0F19F",
"q 	c #BEED9E",
"r 	c #BBE89D",
"s 	c #4FC006",
"t 	c #A1E077",
"u 	c #C2D9B3",
"v 	c #CCD0CF",
"w 	c #D8DBDC",
"x 	c #DADCDE",
"y 	c #DADEDF",
"z 	c #DBDDDF",
"{ 	c #D9DBDC",
"| 	c #D7DADB",
"} 	c #D5D8D9",
"~ 	c #D5D7D8",
" !	c #D4D5D7",
"!!	c #D1D4D4",
"#!	c #CFD3D3",
"$!	c #CDD1D1",
"%!	c #CCCFCE",
"&!	c #CBCECD",
"'!	c #CACCCB",
"(!	c #C2C5C3",
")!	c #B9CFAB",
"*!	c #A0DF76",
"+!	c #4FBF06",
",!	c #62CA1D",
"-!	c #ABE882",
".!	c #AEED84",
"0!	c #B0BAAB",
"1!	c #ADAEAF",
"2!	c #BCBFC0",
"3!	c #B5B6B7",
"4!	c #B7B9BA",
"5!	c #B5B7B9",
"6!	c #B4B7B8",
"7!	c #B1B3B4",
"8!	c #ABACAD",
"9!	c #B8BABB",
":!	c #B7B9BB",
";!	c #B8BBBD",
"<!	c #B9BBBD",
"=!	c #B6B9BB",
">!	c #B3B4B6",
"?!	c #A9ABAC",
"@!	c #B8BBBC",
"A!	c #B1B6AD",
"B!	c #ADEA85",
"C!	c #AAE782",
"D!	c #62C91D",
"E!	c #74D534",
"F!	c #A3EA75",
"G!	c #A6F075",
"H!	c #B2D89A",
"I!	c #A9ABAD",
"J!	c #C7CBCD",
"K!	c #C8CBCD",
"L!	c #C6CACC",
"M!	c #C4C7CA",
"N!	c #C8CCCF",
"O!	c #CDD0D2",
"P!	c #B7B7BA",
"Q!	c #C2C6C7",
"R!	c #D6D9DB",
"S!	c #D3D7DA",
"T!	c #D1D5D7",
"U!	c #BABDBF",
"V!	c #BDC1C2",
"W!	c #B6B8B9",
"X!	c #B8D2A9",
"Y!	c #A3E975",
"Z!	c #74D334",
"[!	c #52C406",
"]!	c #77DA36",
"^!	c #9CEC66",
"_!	c #9FF367",
"`!	c #ADE18C",
"a!	c #AAADAF",
"b!	c #C6CACB",
"c!	c #ADAEB1",
"d!	c #D4D7DA",
"e!	c #C4C8CB",
"f!	c #B8BABC",
"g!	c #C5C8CA",
"h!	c #B2B5B9",
"i!	c #DBDEE0",
"j!	c #D8DBDE",
"k!	c #C9CDD0",
"l!	c #A8AAAD",
"m!	c #B1B4B6",
"n!	c #B1B4B7",
"o!	c #B5B8B8",
"p!	c #B2D59C",
"q!	c #9FF267",
"r!	c #9BEB67",
"s!	c #77D936",
"t!	c #51C306",
"u!	c #54C906",
"v!	c #71DC2B",
"w!	c #95ED5A",
"x!	c #98F55A",
"y!	c #A7E67F",
"z!	c #A5A9AB",
"{!	c #BBC0C2",
"|!	c #A9AAAC",
"}!	c #DBDFE0",
"~!	c #D9DEE0",
" #	c #BFC4C7",
"!#	c #B8BDC0",
"##	c #B0B3B6",
"$#	c #BEC2C4",
"%#	c #D9DBDB",
"&#	c #D5D9DA",
"'#	c #A9AAAE",
"(#	c #B9BABD",
")#	c #BFC2C5",
"*#	c #B2B6B9",
"+#	c #B0B3B4",
",#	c #B1DA99",
"-#	c #97F45A",
".#	c #94EC59",
"0#	c #71DB2B",
"1#	c #54C706",
"2#	c #56CD06",
"3#	c #66DD17",
"4#	c #8DEE4D",
"5#	c #91F64D",
"6#	c #A2E479",
"7#	c #9C9FA1",
"8#	c #B8BDBF",
"9#	c #939596",
":#	c #ADB2B1",
";#	c #D5DADB",
"<#	c #C0C4C6",
"=#	c #ACB1B4",
">#	c #ACAFB2",
"?#	c #BABFC1",
"@#	c #D1D6D8",
"A#	c #A0A2A5",
"B#	c #B5B9BC",
"C#	c #BFC5C8",
"D#	c #CBCFD2",
"E#	c #B1B4B8",
"F#	c #ACB0B2",
"G#	c #B0D998",
"H#	c #90F54D",
"I#	c #8DED4D",
"J#	c #65DB17",
"K#	c #55CB06",
"L#	c #50C106",
"M#	c #57CF06",
"N#	c #5DDD07",
"O#	c #81EE38",
"P#	c #89F73F",
"Q#	c #9DE36F",
"R#	c #919496",
"S#	c #B5BBBD",
"T#	c #A2A5A9",
"U#	c #888A8D",
"V#	c #9DA1A2",
"W#	c #A0A4A8",
"X#	c #B0B5B8",
"Y#	c #A3A6A9",
"Z#	c #ACB1B3",
"[#	c #96989A",
"]#	c #8F9093",
"^#	c #A8ACAE",
"_#	c #C1C6C8",
"`#	c #C5CACD",
"a#	c #A7ADB1",
"b#	c #A4A8A9",
"c#	c #ABD293",
"d#	c #89F63F",
"e#	c #80ED38",
"f#	c #5CDC07",
"g#	c #50C206",
"h#	c #57D006",
"i#	c #5DDF07",
"j#	c #6DEC18",
"k#	c #82F733",
"l#	c #96E166",
"m#	c #8B8D90",
"n#	c #AEB4B5",
"o#	c #BEC4C7",
"p#	c #B4BDC1",
"q#	c #B4B8BC",
"r#	c #B3B7BA",
"s#	c #B3B9BC",
"t#	c #909295",
"u#	c #A0A6A7",
"v#	c #A6ACAF",
"w#	c #9EA1A5",
"x#	c #A2A6A9",
"y#	c #B3B8BA",
"z#	c #B7BCBE",
"{#	c #989B9F",
"|#	c #A0A2A2",
"}#	c #A4D18B",
"~#	c #81F633",
" $	c #6CEB17",
"!$	c #5CDD07",
"#$	c #4FC106",
"$$	c #5DDE07",
"%$	c #63EB08",
"&$	c #74F61D",
"'$	c #90E15D",
"($	c #88898C",
")$	c #848789",
"*$	c #888C8E",
"+$	c #8F9294",
",$	c #8B8E91",
"-$	c #868A8C",
".$	c #7F8486",
"0$	c #6E7172",
"1$	c #7D8184",
"2$	c #7D8081",
"3$	c #828486",
"4$	c #818586",
"5$	c #7D8285",
"6$	c #777C7E",
"7$	c #6C6E6F",
"8$	c #989D9D",
"9$	c #9FD083",
":$	c #73F51D",
";$	c #62E907",
"<$	c #56CF06",
"=$	c #62EA07",
">$	c #67F508",
"?$	c #84DD4C",
"@$	c #7C7F82",
"A$	c #9CA3A7",
"B$	c #BBC1C4",
"C$	c #ADB2B5",
"D$	c #B7BEC2",
"E$	c #B6BCC0",
"F$	c #85868B",
"G$	c #909497",
"H$	c #9DA4A7",
"I$	c #A6ABAF",
"J$	c #A3A6AB",
"K$	c #9EA0A4",
"L$	c #A2A6AA",
"M$	c #79787D",
"N$	c #929899",
"O$	c #94C677",
"P$	c #66F308",
"Q$	c #61E807",
"R$	c #5CDB07",
"S$	c #5BDB07",
"T$	c #61E707",
"U$	c #66F207",
"V$	c #75DA35",
"W$	c #696C6E",
"X$	c #9EA3A6",
"Y$	c #AFB3B5",
"Z$	c #9AA0A2",
"[$	c #909597",
"]$	c #99A2A4",
"^$	c #ADB3B6",
"_$	c #888B91",
"`$	c #A0A5A8",
"a$	c #92979C",
"b$	c #B5BABE",
"c$	c #B2B9BE",
"d$	c #A5ABAF",
"e$	c #AEB5B7",
"f$	c #8F9194",
"g$	c #828788",
"h$	c #85BB63",
"i$	c #65F107",
"j$	c #60E607",
"k$	c #5BD907",
"l$	c #53C606",
"m$	c #59D707",
"n$	c #5FE407",
"o$	c #64EF07",
"p$	c #69CF25",
"q$	c #515252",
"r$	c #939699",
"s$	c #AAADB1",
"t$	c #B1B5B9",
"u$	c #888D91",
"v$	c #92989C",
"w$	c #A2A9AC",
"x$	c #84878B",
"y$	c #979D9F",
"z$	c #86898D",
"{$	c #C4C9CC",
"|$	c #C9CDD1",
"}$	c #B2B6BA",
"~$	c #ACB3B6",
" %	c #8F9296",
"!%	c #7D8183",
"#%	c #78AF53",
"$%	c #63EE07",
"%%	c #5FE207",
"&%	c #59D507",
"'%	c #50BF06",
"(%	c #57D107",
")%	c #66C724",
"*%	c #565558",
"+%	c #A4A8AA",
",%	c #A5ACB0",
"-%	c #888B8F",
".%	c #929699",
"0%	c #9DA5A7",
"1%	c #A7ADAF",
"2%	c #858A8F",
"3%	c #97A0A2",
"4%	c #83898D",
"5%	c #ABB1B2",
"6%	c #CBD0D3",
"7%	c #999FA3",
"8%	c #939A9C",
"9%	c #747879",
":%	c #629D3A",
";%	c #56CE06",
"<%	c #4EBE06",
"=%	c #53C607",
">%	c #5AD807",
"?%	c #60E407",
"@%	c #7AD63F",
"A%	c #808287",
"B%	c #A4ABAC",
"C%	c #B1B5B8",
"D%	c #969C9F",
"E%	c #9DA3A6",
"F%	c #9BA0A5",
"G%	c #A8AEB1",
"H%	c #8A8D93",
"I%	c #9EA8A9",
"J%	c #ACB4B8",
"K%	c #8A8C92",
"L%	c #939999",
"M%	c #8B9295",
"N%	c #A2A8AB",
"O%	c #8E9195",
"P%	c #757879",
"Q%	c #63A139",
"R%	c #5FE307",
"S%	c #5AD707",
"T%	c #52C307",
"U%	c #4EBC07",
"V%	c #56CF07",
"W%	c #70D92B",
"X%	c #888E8F",
"Y%	c #9A9FA3",
"Z%	c #AEB6B8",
"[%	c #B1B6BA",
"]%	c #AEB7BA",
"^%	c #898C91",
"_%	c #A2AAAC",
"`%	c #C4C9CD",
"a%	c #BEC3C7",
"b%	c #A3A7AE",
"c%	c #A3A9AD",
"d%	c #BCC2C5",
"e%	c #8F9196",
"f%	c #A8AFB0",
"g%	c #80C358",
"h%	c #55CC07",
"i%	c #4EBC06",
"j%	c #4EBD06",
"k%	c #4FBC07",
"l%	c #58D307",
"m%	c #5DDE08",
"n%	c #61804E",
"o%	c #696E6D",
"p%	c #6E7272",
"q%	c #8D9294",
"r%	c #969C9E",
"s%	c #9CA3A4",
"t%	c #A6ADAE",
"u%	c #717578",
"v%	c #959A9A",
"w%	c #9EA2A4",
"x%	c #7E8080",
"y%	c #7E8282",
"z%	c #828586",
"{%	c #868989",
"|%	c #A9B6A9",
"}%	c #69D521",
"~%	c #4EBA07",
" &	c #4DBA06",
"!&	c #4FBD07",
"#&	c #58D407",
"$&	c #5CD70A",
"%&	c #569629",
"&&	c #6C7D63",
"'&	c #868D89",
"(&	c #7B7C7F",
")&	c #6A6E71",
"*&	c #545557",
"+&	c #575B5B",
",&	c #5D6161",
"-&	c #4A4C4D",
".&	c #3D3B3D",
"0&	c #495044",
"1&	c #566152",
"2&	c #607D4D",
"3&	c #70AD47",
"4&	c #64D11C",
"5&	c #58D207",
"6&	c #4DBC06",
"7&	c #4BB906",
"8&	c #4CB806",
"9&	c #4DB908",
":&	c #62E509",
";&	c #66E411",
"<&	c #72DD2C",
"=&	c #77A959",
">&	c #4C4D4A",
"?&	c #7F8585",
"@&	c #698F4E",
"A&	c #61C022",
"B&	c #63E80A",
"C&	c #62E808",
"D&	c #56CE07",
"E&	c #4CB608",
"F&	c #4CB906",
"G&	c #4AB706",
"H&	c #31790B",
"I&	c #4AB108",
"J&	c #52C407",
"K&	c #60C51C",
"L&	c #7AC649",
"M&	c #62E708",
"N&	c #51C207",
"O&	c #2C6B0C",
"P&	c #1D490F",
"Q&	c #49B107",
"R&	c #4AB207",
"S&	c #4AB008",
"T&	c #51C107",
"U&	c #56D007",
"V&	c #49AF08",
"W&	c #4AB307",
"X&	c #46AB07",
"Y&	c #173810",
"Z&	c #071313",
"[&	c #2E720B",
"]&	c #4BB606",
"^&	c #48AC08",
"_&	c #48AD08",
"`&	c #4BB408",
"a&	c #49AD08",
"b&	c #49B307",
"c&	c #29660C",
"d&	c #040B14",
"e&	c #061013",
"f&	c #21530E",
"g&	c #388A0A",
"h&	c #48B007",
"i&	c #4BB506",
"j&	c #47AC07",
"k&	c #36840A",
"l&	c #1E4A0F",
"                                                                ",
"                                                                ",
"                      # $ % & ' ( ) * + ,                       ",
"                  - . 0 1 2 2 3 3 2 2 4 5 6 #                   ",
"              7 8 9 : ; < = > > > > = ? ; @ A B                 ",
"            # C D E F G H I J K K J I H G L M N O +             ",
"          P Q R S T U V W X Y Z Z Y X W [ U ] S ^ _ 7           ",
"        ` a b c d e f g h i j j j k l h m n o p q r 6           ",
"        s t u v w x y z w { | } ~  !!!#!$!%!&!'!(!)!*!+!        ",
"      ` ,!-!.!0!1!2!3!4!5!6!7!8!9!:!;!<!=!>!?!@!A!B!C!D!`       ",
"      s E!F!G!H!I!J!K!L!M!N!O!P!Q!R!S!T!U!V!:!W!X!G!Y!Z!s       ",
"    ` [!]!^!_!`!a!b!c!d!e!f!g!h!Q!i!j!k!l!m!n!o!p!q!r!s!t!`     ",
"    ` u!v!w!x!y!z!{!|!}!~! #!###$#%#&#'#(#)#*#+#,#-#.#0#1#`     ",
"    s 2#3#4#5#6#7#8#9#:#;#<#=#>#?#@#A#B#C#D#E#F#G#H#I#J#K#+!    ",
"    L#M#N#O#P#Q#R#S#T#U#V#W#X#Y#Z#[#]#^#_#`#a#b#c#d#e#f#2#s     ",
"    g#h#i#j#k#l#m#n#o#p#q#r#s#t#u#v#w#x#y#z#{#|#}#~# $!$M##$    ",
"    g#h#$$%$&$'$($)$*$+$,$-$.$0$1$2$3$4$5$6$7$8$9$:$;$!$<$#$    ",
"    L#M#!$=$>$?$@$A$B$z#C$D$E$F$G$H$I$J$K$L$M$N$O$P$Q$R$2#s     ",
"    +!K#S$T$U$V$W$X$Y$Z$[$]$^$_$`$a$b$c$d$e$f$g$h$i$j$k$u!`     ",
"    ` l$m$n$o$p$q$r$s$t$u$v$w$x$y$z${$|$}$~$ %!%#%$%%%&%[!`     ",
"    ` '%(%i#=$)%*%+%,%-%.%0%1%2%3%4%5%6%s#7%8%9%:%;$!$;%+!      ",
"      <%=%>%?%@%A%B%C%D%E%F%G%H%I%J%K%L%M%N%O%P%Q%R%S%T%<%      ",
"      <%U%V%!$W%X%Y%Z%[%7%G%]%^%_%`%a%b%c%d%e%f%g%R$h%i%<%      ",
"        j%k%l%m%n%o%p%q%r%s%t%u%v%C$w%x%y%z%{%|%}%(%~%<%        ",
"           &!&#&$&%&&&'&(&)&*&+&,&-&.&0&1&2&3&4&5&~%6&          ",
"          7&8&9&(%f#R%:&;&<&=&>&?&@&A&B&C&R%R$D&E&F&G&          ",
"            H&F&I&J&S%$$R%j$Q$K&L&M&j$%%!$&%N&I&F&O&            ",
"              P&Q&R&S&T&U&k$f#!$!$R$>%D&- V&W&X&Y&              ",
"                Z&[&]&R&^&_&`&9&9&`&^&a&W&b&c&d&                ",
"                    e&f&g&h&8&i&i&8&j&k&l&d&                    ",
"                                                                ",
"                                                                "};