/* XPM */ 
static const unsigned char * zc_icon_small_xpm[] = {
"16 16 151 2",
"  	c None",
"! 	c black",
"# 	c #6FCB33",
"$ 	c #9BDC71",
"% 	c #B2E591",
"& 	c #B1E490",
"' 	c #99DB6E",
"( 	c #6CCA2F",
") 	c #5DC41A",
"* 	c #ABE287",
"+ 	c #D1F3BA",
", 	c #D2F6BA",
"- 	c #D3F7BA",
". 	c #D2F7BA",
"0 	c #A6E180",
"1 	c #5BC318",
"2 	c #56C211",
"3 	c #B2E590",
"4 	c #C4F2A6",
"5 	c #C7F7A6",
"6 	c #C7FAA5",
"7 	c #C8FBA6",
"8 	c #C6F7A4",
"9 	c #C3F2A4",
": 	c #AFE58B",
"; 	c #7FD447",
"< 	c #BBD4AC",
"= 	c #C7C9CA",
"> 	c #C8CACC",
"? 	c #C2C4C5",
"@ 	c #C6C8C9",
"A 	c #C4C7C8",
"B 	c #C1C3C4",
"C 	c #BDC0C0",
"D 	c #B6CDA8",
"E 	c #7FD347",
"F 	c #4FC006",
"G 	c #8BE151",
"H 	c #A9E780",
"I 	c #B8BBBD",
"J 	c #C4C7C9",
"K 	c #C2C5C8",
"L 	c #BFC1C4",
"M 	c #CDD1D3",
"N 	c #D1D5D7",
"O 	c #B4B7B9",
"P 	c #B5B7B9",
"Q 	c #ABE288",
"R 	c #8AE051",
"S 	c #52C506",
"T 	c #7EE53A",
"U 	c #9CED68",
"V 	c #ADB1B3",
"W 	c #B1B4B5",
"X 	c #CBD0D2",
"Y 	c #B0B4B7",
"Z 	c #C9CCCE",
"[ 	c #B5B7BA",
"] 	c #C0C4C7",
"^ 	c #B0B3B6",
"_ 	c #A2E776",
"` 	c #7EE43A",
"a 	c #51C406",
"b 	c #54C906",
"c 	c #6AE517",
"d 	c #8FED52",
"e 	c #A0A4A6",
"f 	c #A7ACAF",
"g 	c #A9ADB0",
"h 	c #A5A9AD",
"i 	c #A2A7A9",
"j 	c #9EA1A4",
"k 	c #BCC1C3",
"l 	c #A1A5A7",
"m 	c #96E464",
"n 	c #69E417",
"o 	c #53C706",
"p 	c #53C806",
"q 	c #5FE407",
"r 	c #7CEA33",
"s 	c #898C90",
"t 	c #9DA2A5",
"u 	c #8A8E91",
"v 	c #8A8E90",
"w 	c #93969A",
"x 	c #8D9194",
"y 	c #848788",
"z 	c #83E047",
"{ 	c #5FE207",
"| 	c #5DDF07",
"} 	c #6AE31A",
"~ 	c #7B7E80",
" !	c #91979A",
"!!	c #979BA0",
"#!	c #94999C",
"$!	c #BDC2C6",
"%!	c #ACB2B6",
"&!	c #878B8D",
"'!	c #71D231",
"(!	c #5DDE07",
")!	c #51C306",
"*!	c #4EBF06",
"+!	c #58D307",
",!	c #68DB1C",
"-!	c #9DA2A6",
".!	c #9AA0A3",
"0!	c #989CA1",
"1!	c #99A1A4",
"2!	c #A5A9AC",
"3!	c #9EA4A8",
"4!	c #838689",
"5!	c #61C320",
"6!	c #58D107",
"7!	c #50C106",
"8!	c #61DA10",
"9!	c #7B877B",
":!	c #969C9E",
";!	c #9DA3A6",
"<!	c #AAB0B2",
"=!	c #9FA3A6",
">!	c #989D9E",
"?!	c #99A09E",
"@!	c #67D121",
"A!	c #50C006",
"B!	c #4CBB06",
"C!	c #50C007",
"D!	c #59C710",
"E!	c #6DB53F",
"F!	c #6FAB4B",
"G!	c #5C6955",
"H!	c #647060",
"I!	c #528D2B",
"J!	c #5EAA2B",
"K!	c #61CA1C",
"L!	c #50BF07",
"M!	c #275E0D",
"N!	c #4CB607",
"O!	c #54CA07",
"P!	c #5CDC07",
"Q!	c #5ED90C",
"R!	c #65D918",
"S!	c #54C807",
"T!	c #4BB407",
"U!	c #23570D",
"V!	c #0D2112",
"W!	c #2F730C",
"X!	c #44A508",
"Y!	c #4CB707",
"Z!	c #43A208",
"[!	c #2D6F0C",
"]!	c #0B1C12",
"                                ",
"          # $ % & ' (           ",
"      ) * + , - . , + 0 1       ",
"    2 3 4 5 6 7 7 6 8 9 : 2     ",
"    ; < = > = ? @ A B C D E     ",
"  F G H I J K L M N O P Q R F   ",
"  S T U V W X Y Z [ ] ^ _ ` a   ",
"  b c d e f g h i j k l m n o   ",
"  p q r s i t u v w x y z { o   ",
"  a | } ~ g  !!!#!$!%!&!'!(!)!  ",
"  *!+!,!&!-!.!0!1!2!3!4!5!6!*!  ",
"    7!8!9!:!;!#!<!=!>!?!@!A!    ",
"    B!C!D!E!F!G!H!I!J!K!L!B!    ",
"      M!N!O!P!Q!R!P!S!T!U!      ",
"        V!W!X!Y!N!Z![!]!        ",
"                                "};