/* XPM */ 
static const unsigned char * zl_icon_small_xpm[] = {
"16 16 148 2",
"  	c None",
"! 	c black",
"# 	c #31BDD3",
"$ 	c #70D2E2",
"% 	c #91DEEA",
"& 	c #90DDEA",
"' 	c #6DD1E1",
"( 	c #2DBCD2",
") 	c #18B5CD",
"* 	c #86DBE8",
"+ 	c #BAEFF8",
", 	c #BAF2FC",
"- 	c #BBF3FC",
". 	c #BFEBF2",
"0 	c #BBF1FA",
"1 	c #7FD8E7",
"2 	c #16B4CD",
"3 	c #0EB2CB",
"4 	c #8DDFED",
"5 	c #A4EEFA",
"6 	c #A6F3FE",
"7 	c #AAF4FF",
"8 	c #B5E8EE",
"9 	c #AAE7EE",
": 	c #89DDEB",
"; 	c #0FB2CB",
"< 	c #46C8DE",
"= 	c #8AE9F9",
"> 	c #8FF1FE",
"? 	c #97F2FF",
"@ 	c #9BF3FF",
"A 	c #A5E0E5",
"B 	c #C2E7EA",
"C 	c #B6E5E9",
"D 	c #A7E1E7",
"E 	c #8DE4F0",
"F 	c #8AE9F8",
"G 	c #45C7DD",
"H 	c #03B0CB",
"I 	c #52D7ED",
"J 	c #73ECFE",
"K 	c #80F0FF",
"L 	c #88F1FF",
"M 	c #8BEAF6",
"N 	c #C0E6E8",
"O 	c #BBC4DE",
"P 	c #AEB7DB",
"Q 	c #C5D9E8",
"R 	c #80D6DF",
"S 	c #73EBFE",
"T 	c #52D5EC",
"U 	c #03AFCB",
"V 	c #05B5D2",
"W 	c #3CDAF5",
"X 	c #60EBFF",
"Y 	c #6EEEFF",
"Z 	c #76EFFF",
"[ 	c #74DBE7",
"] 	c #AED3DF",
"^ 	c #939EDF",
"_ 	c #A3B1E9",
"` 	c #829AC4",
"a 	c #7ED1D8",
"b 	c #5FEBFF",
"c 	c #3FCADF",
"d 	c #04B3D0",
"e 	c #05B8D6",
"f 	c #1BD9F8",
"g 	c #4CE9FF",
"h 	c #5BECFF",
"i 	c #63ECFF",
"j 	c #5FDCEC",
"k 	c #97D0D9",
"l 	c #5F70A7",
"m 	c #586798",
"n 	c #92C2CD",
"o 	c #8FDBE1",
"p 	c #5FCDD9",
"q 	c #22B2C6",
"r 	c #05B7D4",
"s 	c #0BD7F8",
"t 	c #2EE5FF",
"u 	c #49EAFF",
"v 	c #51EAFF",
"w 	c #54CCD9",
"x 	c #64C0C7",
"y 	c #70C8CF",
"z 	c #80D2D8",
"{ 	c #5FC4CC",
"| 	c #32BCCB",
"} 	c #0AD1F2",
"~ 	c #05B3D0",
" !	c #09D2F3",
"!!	c #19E3FF",
"#!	c #32E7FF",
"$!	c #42C9D8",
"%!	c #44AFB7",
"&!	c #3CD4E7",
"'!	c #42E0F5",
"(!	c #40D1E3",
")!	c #40E9FF",
"*!	c #31E7FF",
"+!	c #18E2FE",
",!	c #09D0F1",
"-!	c #04B2CF",
".!	c #04AEC9",
"0!	c #08C5E5",
"1!	c #10DEFD",
"2!	c #2DC8DA",
"3!	c #42B0B8",
"4!	c #30D2E5",
"5!	c #3BE8FF",
"6!	c #39E8FF",
"7!	c #24E5FF",
"8!	c #0FDDFD",
"9!	c #08C2E2",
":!	c #03AEC9",
";!	c #05B1CE",
"<!	c #16B7CE",
"=!	c #8ED6DB",
">!	c #3CAEB7",
"?!	c #2DE5FD",
"@!	c #2DE6FF",
"A!	c #13E0FE",
"B!	c #09CEEF",
"C!	c #05B0CC",
"D!	c #04ABC5",
"E!	c #06A4BD",
"F!	c #29B0C2",
"G!	c #2CADBC",
"H!	c #1DE3FF",
"I!	c #06AFCC",
"J!	c #0C5664",
"K!	c #06A7C2",
"L!	c #08BBDA",
"M!	c #09CFF0",
"N!	c #0AD6F7",
"O!	c #0AD5F6",
"P!	c #08BAD8",
"Q!	c #06A5C0",
"R!	c #0C505C",
"S!	c #111E23",
"T!	c #0A6979",
"U!	c #0797AF",
"V!	c #06A8C3",
"W!	c #0795AC",
"X!	c #0B6575",
"Y!	c #121A1E",
"                                ",
"          # $ % & ' (           ",
"      ) * + , - . 0 + 1 2       ",
"    3 4 5 6 7 8 9 7 6 5 : ;     ",
"    < = > ? @ A B C D E F G     ",
"  H I J K L M N O P Q R S T U   ",
"  V W X Y Z [ ] ^ _ ` a b c d   ",
"  e f g h i j k l m n o p q r   ",
"  e s t u v w x y z { { | } r   ",
"  ~  !!!#!$!%!&!'!(!)!*!+!,!-!  ",
"  .!0!1!2!3!4!5!5!6!#!7!8!9!:!  ",
"    ;!<!=!>!?!*!*!@!7!A!B!C!    ",
"    D!E!F!G!+!H!H!+!8!B!I!D!    ",
"      J!K!L!M!N!O!B!P!Q!R!      ",
"        S!T!U!V!K!W!X!Y!        ",
"                                "};