/* XPM */ 
static const unsigned char * zl_icon_xpm[] = {
"32 32 518 2",
"  	c None",
"! 	c black",
"# 	c #07B0C9",
"$ 	c #0AB1CA",
"% 	c #2EBCD3",
"& 	c #4FC7DA",
"' 	c #61CDDE",
"( 	c #60CDDE",
") 	c #4CC6D9",
"* 	c #29BBD2",
"+ 	c #09B0CA",
", 	c #06AFC9",
"- 	c #34BED4",
". 	c #83D8E6",
"0 	c #BFECF4",
"1 	c #C9F0F7",
"2 	c #C9F1F8",
"3 	c #BAEBF3",
"4 	c #7AD5E4",
"5 	c #2ABBD2",
"6 	c #08B0CA",
"7 	c #24B9D0",
"8 	c #8FDDE9",
"9 	c #BFEDF5",
": 	c #BFEFF8",
"; 	c #BFF1F9",
"< 	c #BFF2FA",
"= 	c #BFF2FB",
"> 	c #BFF3FB",
"? 	c #C0F0F8",
"@ 	c #BFEFF7",
"A 	c #BEEDF5",
"B 	c #82D8E6",
"C 	c #1AB6CE",
"D 	c #07AFC9",
"E 	c #4CC6DA",
"F 	c #AFE8F2",
"G 	c #B5EDF6",
"H 	c #B5EFF9",
"I 	c #B5F1FB",
"J 	c #B5F3FD",
"K 	c #B6F4FE",
"L 	c #B6F5FE",
"M 	c #B7F3FC",
"N 	c #BFE6EB",
"O 	c #BFE5E9",
"P 	c #B6F2FB",
"Q 	c #B5ECF6",
"R 	c #AAE6F0",
"S 	c #3DC1D6",
"T 	c #05AFC9",
"U 	c #53C9DC",
"V 	c #A9E7F2",
"W 	c #A9EBF6",
"X 	c #A9EFFA",
"Y 	c #AAF1FD",
"Z 	c #ABF4FE",
"[ 	c #ADF5FF",
"] 	c #AEF5FF",
"^ 	c #AFF2FC",
"_ 	c #C0E4E7",
"` 	c #AEDADD",
"a 	c #AFF5FE",
"b 	c #ACF4FF",
"c 	c #ABF3FE",
"d 	c #A9EEFA",
"e 	c #A8E6F1",
"f 	c #47C5D9",
"g 	c #04AFC9",
"h 	c #2CBDD4",
"i 	c #9CE4F0",
"j 	c #9DE9F6",
"k 	c #9DEDFB",
"l 	c #9EF1FE",
"m 	c #A1F3FF",
"n 	c #A4F3FF",
"o 	c #A6F4FF",
"p 	c #A7F4FF",
"q 	c #ABEAF2",
"r 	c #B9E2E4",
"s 	c #A3D8DD",
"t 	c #A8F4FF",
"u 	c #A3F3FF",
"v 	c #A0F3FF",
"w 	c #9DEDFA",
"x 	c #9DE8F5",
"y 	c #9AE3EF",
"z 	c #04AFCA",
"{ 	c #74D7E8",
"| 	c #90E5F4",
"} 	c #90EBFA",
"~ 	c #92F0FE",
" !	c #95F2FF",
"!!	c #9AF2FF",
"#!	c #9CF3FF",
"$!	c #9EF3FF",
"%!	c #A2E7EF",
"&!	c #AEDEE1",
"'!	c #A6D6DA",
"(!	c #A8DBE0",
")!	c #A7DDE3",
"*!	c #A4DFE5",
"+!	c #A0E1E8",
",!	c #99E1EA",
"-!	c #93E8F3",
".!	c #91EFFE",
"0!	c #90EAFA",
"1!	c #90E5F3",
"2!	c #74D6E7",
"3!	c #03AFC9",
"4!	c #1CBAD5",
"5!	c #83E1F1",
"6!	c #83E7F8",
"7!	c #84EDFE",
"8!	c #89F0FF",
"9!	c #8EF1FF",
":!	c #92F2FF",
";!	c #97F3FF",
"<!	c #98F3FF",
"=!	c #94D9E0",
">!	c #B1E2E6",
"?!	c #E6F9FA",
"@!	c #D4F1F4",
"A!	c #CBEDF0",
"B!	c #C1E9EB",
"C!	c #B7E4E7",
"D!	c #ACDEE1",
"E!	c #89CBD0",
"F!	c #88F0FF",
"G!	c #84EDFD",
"H!	c #83E7F7",
"I!	c #82E0EF",
"J!	c #1CB9D4",
"K!	c #03AEC9",
"L!	c #03B0CB",
"M!	c #34C7E1",
"N!	c #75E2F4",
"O!	c #76E9FC",
"P!	c #7BEEFF",
"Q!	c #81EFFF",
"R!	c #87F1FF",
"S!	c #8BF1FF",
"T!	c #8DF2FF",
"U!	c #8FF2FF",
"V!	c #8FEBF7",
"W!	c #99CFD3",
"X!	c #D9F5F7",
"Y!	c #F3FAFB",
"Z!	c #C2CADD",
"[!	c #C9D2DF",
"]!	c #D0DDE5",
"^!	c #D7E9EE",
"_!	c #E1F9FB",
"`!	c #84C4C8",
"a!	c #80ECFB",
"b!	c #7AEEFE",
"c!	c #76E8FB",
"d!	c #75E1F3",
"e!	c #33C6DF",
"f!	c #03AFCA",
"g!	c #04B3D1",
"h!	c #37CEE8",
"i!	c #68E3F8",
"j!	c #6BEBFE",
"k!	c #72EDFF",
"l!	c #79EFFF",
"m!	c #7EF0FF",
"n!	c #82F0FF",
"o!	c #85F0FF",
"p!	c #86F0FF",
"q!	c #88DBE5",
"r!	c #9CD7DB",
"s!	c #F1FCFC",
"t!	c #A3B0CC",
"u!	c #949BD5",
"v!	c #8991D3",
"w!	c #979ED7",
"x!	c #8990C0",
"y!	c #D2F3F5",
"z!	c #89CDD1",
"{!	c #73DCE9",
"|!	c #71EDFF",
"}!	c #6AEAFE",
"~!	c #68E2F7",
" #	c #37CCE6",
"!#	c #04B2CF",
"##	c #06B8D7",
"$#	c #2CD0EC",
"%#	c #5BE4FB",
"&#	c #60EBFF",
"'#	c #69ECFF",
"(#	c #70EEFF",
")#	c #76EFFF",
"*#	c #7CEFFF",
"+#	c #7DEFFF",
",#	c #7BCDD5",
"-#	c #ADE3E7",
".#	c #B3C5D7",
"0#	c #838ACD",
"1#	c #A2B0EB",
"2#	c #B9C6F6",
"3#	c #A0AFED",
"4#	c #6F76BF",
"5#	c #ACD4DA",
"6#	c #99DADE",
"7#	c #64CAD5",
"8#	c #68ECFF",
"9#	c #5FEBFF",
":#	c #5BDEF4",
";#	c #2CC8E2",
"<#	c #05B6D5",
"=#	c #03AFCB",
">#	c #07BDDC",
"?#	c #18D0EF",
"@#	c #4FE5FD",
"A#	c #57EAFF",
"B#	c #60ECFF",
"C#	c #67EDFF",
"D#	c #6CEEFF",
"E#	c #72EEFF",
"F#	c #73EEFF",
"G#	c #66C2CB",
"H#	c #A9E3E7",
"I#	c #ADC1D5",
"J#	c #7C86CF",
"K#	c #AABBF5",
"L#	c #ADBEF7",
"M#	c #8492CA",
"N#	c #636BB2",
"O#	c #8BB4C5",
"P#	c #A6E6EB",
"Q#	c #57BAC3",
"R#	c #5FECFF",
"S#	c #55EAFF",
"T#	c #5ACEDE",
"U#	c #1AB2C9",
"V#	c #06BAD9",
"W#	c #04B1CD",
"X#	c #07BFDF",
"Y#	c #09D0F1",
"Z#	c #3CE4FE",
"[#	c #4DE9FF",
"]#	c #56EBFF",
"^#	c #5DECFF",
"_#	c #63EDFF",
"`#	c #69EDFF",
"a#	c #5AC7D3",
"b#	c #8AD2D7",
"c#	c #A7C0D1",
"d#	c #6068B9",
"e#	c #6671B1",
"f#	c #6A76B7",
"g#	c #51578F",
"h#	c #5A6C89",
"i#	c #A0D3D7",
"j#	c #AEF0F5",
"k#	c #59B2B9",
"l#	c #54E6F9",
"m#	c #4ED8EA",
"n#	c #5CAFB5",
"o#	c #07B4CF",
"p#	c #08C1E1",
"q#	c #09D1F3",
"r#	c #1CE0FE",
"s#	c #42E7FF",
"t#	c #4CEAFF",
"u#	c #54EBFF",
"v#	c #59ECFF",
"w#	c #5EECFF",
"x#	c #57D0DE",
"y#	c #6EC3C9",
"z#	c #BEEAF0",
"{#	c #6382A4",
"|#	c #52668D",
"}#	c #4D5D8B",
"~#	c #59738E",
" $	c #96D1D6",
"!$	c #B7F8FD",
"#$	c #B1F7FD",
"$$	c #82D4DA",
"%$	c #6FBBC0",
"&$	c #6AB9BF",
"'$	c #1D99A6",
"($	c #09CDEE",
")$	c #07BFDE",
"*$	c #03B0CC",
"+$	c #0DDEFE",
",$	c #2DE5FF",
"-$	c #42E9FF",
".$	c #4AEAFF",
"0$	c #50EBFF",
"1$	c #55EBFF",
"2$	c #57EBFF",
"3$	c #56C7D4",
"4$	c #66C2C8",
"5$	c #A2E9EE",
"6$	c #9EE7EC",
"7$	c #A8ECF1",
"8$	c #A5E7ED",
"9$	c #8DDAE0",
":$	c #87DBE1",
";$	c #94E6EC",
"<$	c #94E7EE",
"=$	c #8BE1E8",
">$	c #67C5CB",
"?$	c #2A9EA7",
"@$	c #0ACDEB",
"A$	c #09CFF1",
"B$	c #04B0CC",
"C$	c #0CDDFE",
"D$	c #18E2FF",
"E$	c #32E7FF",
"F$	c #41E9FF",
"G$	c #47EAFF",
"H$	c #4EEAFF",
"I$	c #4DCAD9",
"J$	c #57B3B9",
"K$	c #58BBC2",
"L$	c #2F9CA4",
"M$	c #319EA7",
"N$	c #4BB1B7",
"O$	c #7DD7DD",
"P$	c #52B1B8",
"Q$	c #31ABB7",
"R$	c #31A4AD",
"S$	c #2FA1AB",
"T$	c #2CA5B0",
"U$	c #24B7C8",
"V$	c #15D7F2",
"W$	c #0BDCFD",
"X$	c #09CEEF",
"Y$	c #06BBDA",
"Z$	c #0BDBFC",
"[$	c #15E2FF",
"]$	c #22E5FF",
"^$	c #31E6FF",
"_$	c #3EE9FF",
"`$	c #43E9FF",
"a$	c #44C7D7",
"b$	c #50AFB6",
"c$	c #4FB7BE",
"d$	c #259FAB",
"e$	c #46E4F9",
"f$	c #48E8FE",
"g$	c #3AC8DA",
"h$	c #32ADBA",
"i$	c #4DC8D6",
"j$	c #46E9FF",
"k$	c #3DE9FF",
"l$	c #30E6FF",
"m$	c #21E4FF",
"n$	c #13E2FF",
"o$	c #0AD9FB",
"p$	c #08CBEB",
"q$	c #06B9D8",
"r$	c #05B5D3",
"s$	c #08C8E9",
"t$	c #0AD7F9",
"u$	c #11E1FF",
"v$	c #1EE3FF",
"w$	c #28E6FF",
"x$	c #31E7FF",
"y$	c #39C7D8",
"z$	c #48ABB2",
"{$	c #4FB9C1",
"|$	c #209DA8",
"}$	c #40E3F9",
"~$	c #42E8FF",
" %	c #41E8FF",
"!%	c #3EE8FF",
"#%	c #39E8FF",
"$%	c #30E7FF",
"%%	c #27E6FF",
"&%	c #1CE3FF",
"'%	c #0FE1FE",
"(%	c #09D5F7",
")%	c #08C6E6",
"*%	c #05B3D1",
"+%	c #04AFCB",
",%	c #08C2E1",
"-%	c #0CDEFE",
".%	c #24E5FF",
"0%	c #2FCADD",
"1%	c #42A8AF",
"2%	c #4AB7BF",
"3%	c #1A9BA6",
"4%	c #3AE2F8",
"5%	c #3DE8FF",
"6%	c #3CE8FF",
"7%	c #3AE8FF",
"8%	c #37E8FF",
"9%	c #2BE6FF",
":%	c #16E2FF",
";%	c #0CDDFD",
"<%	c #08BFDE",
"=%	c #04AECA",
">%	c #04AEC9",
"?%	c #07B6D4",
"@%	c #08CAEB",
"A%	c #0AD7FA",
"B%	c #11E1FE",
"C%	c #22C7DD",
"D%	c #40A8B0",
"E%	c #67CBD2",
"F%	c #16949E",
"G%	c #34E2F8",
"H%	c #38E8FF",
"I%	c #35E8FF",
"J%	c #2DE6FF",
"K%	c #25E5FF",
"L%	c #1BE2FF",
"M%	c #0FE0FE",
"N%	c #09D6F8",
"O%	c #08C9E9",
"P%	c #06B3D0",
"Q%	c #05ABC7",
"R%	c #08BFDF",
"S%	c #09CFF0",
"T%	c #14C1DA",
"U%	c #3EA6AE",
"V%	c #AEE8EC",
"W%	c #5DBEC4",
"X%	c #159EAB",
"Y%	c #33E7FF",
"Z%	c #34E8FF",
"[%	c #1DE3FF",
"]%	c #12E1FF",
"^%	c #0ADAFC",
"_%	c #08BCDB",
"`%	c #04ABC7",
"a%	c #03AEC8",
"b%	c #04ADC8",
"c%	c #06ACC8",
"d%	c #0BB3CE",
"e%	c #2F9AA1",
"f%	c #76CED4",
"g%	c #D7FAFD",
"h%	c #68CBD1",
"i%	c #15939D",
"j%	c #27E1F9",
"k%	c #2EE6FF",
"l%	c #2CE6FF",
"m%	c #2AE6FF",
"n%	c #09D0F2",
"o%	c #08C2E2",
"p%	c #06AAC6",
"q%	c #04AAC5",
"r%	c #06A5C1",
"s%	c #059AAD",
"t%	c #2998A1",
"u%	c #51B6BC",
"v%	c #5FC7CE",
"w%	c #209199",
"x%	c #1DE1FD",
"y%	c #23E5FF",
"z%	c #08C4E3",
"{%	c #07AAC7",
"|%	c #04ABC6",
"}%	c #04A9C2",
"~%	c #04A8C2",
" &	c #07A9C5",
"!&	c #09BEDC",
"#&	c #21B6CD",
"$&	c #24B7CC",
"%&	c #0EA7BB",
"&&	c #10E1FF",
"'&	c #14E2FF",
"(&	c #08C0DF",
")&	c #07A7C3",
"*&	c #04A9C4",
"+&	c #04A8C1",
",&	c #096E7F",
"-&	c #04A9C3",
".&	c #07A2BD",
"0&	c #08B6D4",
"1&	c #09D5F8",
"2&	c #08C7E7",
"3&	c #08B3D0",
"4&	c #06A1BC",
"5&	c #04AAC4",
"6&	c #0B6271",
"7&	c #0E434D",
"8&	c #05A2BB",
"9&	c #05A2BD",
":&	c #08A2BD",
";&	c #09B3D0",
"<&	c #09C2E1",
"=&	c #09CBEC",
">&	c #09CBEB",
"?&	c #09C0DF",
"@&	c #09B1CE",
"A&	c #08A1BB",
"B&	c #05A3BE",
"C&	c #059CB4",
"D&	c #0F333B",
"E&	c #131114",
"F&	c #0A6978",
"G&	c #04A6C0",
"H&	c #05A3BD",
"I&	c #079EB8",
"J&	c #089FB9",
"K&	c #08A6C2",
"L&	c #08ABC7",
"M&	c #09AAC6",
"N&	c #08A6C1",
"O&	c #089EB8",
"P&	c #05A4BE",
"Q&	c #04A4BD",
"R&	c #0B5D6B",
"S&	c #130A0C",
"T&	c #130F11",
"U&	c #0D4C57",
"V&	c #087E91",
"W&	c #05A1B9",
"X&	c #04A5C0",
"Y&	c #059EB6",
"Z&	c #09798B",
"[&	c #0E444E",
"                                                                ",
"                                                                ",
"                      # $ % & ' ( ) * + +                       ",
"                  , - . 0 1 2 2 2 2 1 3 4 5 #                   ",
"              6 7 8 9 : ; < = > > ? ; ; @ A B C                 ",
"            D E F G H I J K L M N O P J I H Q R S +             ",
"          T U V W X Y Z [ ] ^ _ ` a ] b c Y d W e f 6           ",
"        g h i j k l m n o p q r s t p o u v l w x y *           ",
"        z { | } ~  !!!#!$!v %!&!'!(!)!*!+!,!-!.!0!1!2!z         ",
"      3!4!5!6!7!8!9!:! !;!<!=!>!?!@!A!B!C!D!E!F!G!H!I!J!K!      ",
"      L!M!N!O!P!Q!R!S!T!U!V!W!X!Y!Z![!]!^!_!`!a!b!c!d!e!f!      ",
"    K!g!h!i!j!k!l!m!n!o!p!q!r!s!t!u!v!w!x!y!z!{!|!}!~! #!#K!    ",
"    3!##$#%#&#'#(#)#l!*#+#,#-#.#0#1#2#3#4#5#6#7#8#9#:#;#<#K!    ",
"    =#>#?#@#A#B#C#D#(#E#F#G#H#I#J#K#L#M#N#O#P#Q#R#S#T#U#V#f!    ",
"    W#X#Y#Z#[#]#^#_#C#`#`#a#b#c#d#e#f#g#h#i#j#k#l#m#n#o#>#L!    ",
"    W#p#q#r#s#t#u#v#w#B#B#x#y#z#{#|#}#~# $!$#$$$%$&$'$($)$*$    ",
"    W#p#q#+$,$-$.$0$1$2$2$3$4$5$6$7$8$9$:$;$<$=$>$?$@$A$)$*$    ",
"    B$)$Y#C$D$E$F$G$t#H$I$J$K$L$M$N$O$P$Q$R$S$T$U$V$W$X$>#=#    ",
"    f!Y$($Z$[$]$^$_$`$a$b$c$d$e$f$g$h$i$j$`$k$l$m$n$o$p$q$f!    ",
"    K!r$s$t$u$v$w$x$y$z${$|$}$~$~$~$~$ %!%#%$%%%&%'%(%)%*%K!    ",
"    K!+%,%q#-%D$.%0%1%2%3%4%5%5%5%5%6%7%8%E$9%]$:%;%Y#<%=%      ",
"      >%?%@%A%B%C%D%E%F%G%H%#%7%7%#%H%I%E$J%K%L%M%N%O%P%K!      ",
"      K!Q%R%S%T%U%V%W%X%$%Y%Z%I%I%Z%E$$%9%K%[%]%^%X$_%`%a%      ",
"        b%c%d%e%f%g%h%i%j%9%J%k%k%l%m%%%]$L%]%Z$n%o%p%a%        ",
"          q%r%s%t%u%v%w%x%m$y%.%.%y%m$&%:%M%^%n%z%{%|%          ",
"          }%~% &!&#&$&%&&&'&:%D$D$:%n$'%;%N%X$(&)&*&+&          ",
"            ,&-&.&0&O%n%1&^%W$C$C$W$o$(%Y#2&3&4&5&6&            ",
"              7&8&9&:&;&<&=&X$Y#A$X$>&?&@&A&B&C&D&              ",
"                E&F&G&H&I&J&K&L&M&N&O&I&P&Q&R&S&                ",
"                    T&U&V&W&~%X&G&~%Y&Z&[&S&                    ",
"                                                                ",
"                                                                "};