/* XPM */ 
static char * zq_icon_small_xpm[] = {
"16 16 8 1",
" 	c None",
"!	c black",
"#	c #808080",
"$	c white",
"%	c #C0C0C0",
"&	c #000080",
"'	c #0000FF",
"(	c #FFFF00",
" ##########     ",
" #$$$$$$$$%#    ",
" #$&&&&&&&%$#   ",
" #$&''''''!!!!  ",
" #$&'''('''&%!  ",
" #$&''(((''&%!  ",
" #$&'((((('&%!  ",
" #$&('''''(&%!  ",
" #$((('''(((%!  ",
" #((((('(((((!  ",
" #$&'''''''&%!  ",
" #$&'''''''&%!  ",
" #$$&'''''&$%!  ",
" #$$$&&&&&$$%!  ",
" #%%%%%%%%%%%!  ",
" !!!!!!!!!!!!!  "};