/* XPM */ 
static char * zq_icon_xpm[] = {
"32 32 9 1",
" 	c None",
"!	c black",
"#	c #808080",
"$	c white",
"%	c #C0C0C0",
"&	c #000080",
"'	c #0000FF",
"(	c #FF0000",
")	c #FFFF00",
"   ####################         ",
"   #$$$$$$$$$$$$$$$$$$#!        ",
"   #$$$$$$$$$$$$$$$$$$##!       ",
"   #$$$$$$$$$$$$$$$$$$#%#!      ",
"   #$$$$$$$$$$$$$$$$$$#$%#!     ",
"   #$$$&&&&&&&&&&&&&&&#$$%#!    ",
"   #$$$&''''''''''''''#!!!!!!   ",
"   #$$$&'''''''''''''''&$$$%!   ",
"   #$$$&'''''''('''''''&$$$%!   ",
"   #$$$&''''''()(''''''&$$$%!   ",
"   #$$$&'''''()))('''''&$$$%!   ",
"   #$$$&''''()))))(''''&$$$%!   ",
"   #$$$&'''()))))))('''&$$$%!   ",
"   #$$$&''(((((((((((''&$$$%!   ",
"   #$$$&'('''''''''''('&$$$%!   ",
"   #$$$&()('''''''''()(&$$$%!   ",
"   #$$$()))('''''''()))($$$%!   ",
"   #$$()))))('''''()))))($$%!   ",
"   #$()))))))('''()))))))($%!   ",
"   #((((((((((('(((((((((((%!   ",
"   #$$$&'''''''''''''''&$$$%!   ",
"   #$$$&'''''''''''''''&$$$%!   ",
"   #$$$&'''''''''''''''&$$$%!   ",
"   #$$$$&'''''''''''''&$$$$%!   ",
"   #$$$$&'''''''''''''&$$$$%!   ",
"   #$$$$$&'''''''''''&$$$$$%!   ",
"   #$$$$$$&'''''''''&$$$$$$%!   ",
"   #$$$$$$$&&'''''&&$$$$$$$%!   ",
"   #$$$$$$$$$&&&&&$$$$$$$$$%!   ",
"   #$$$$$$$$$$$$$$$$$$$$$$$%!   ",
"   #%%%%%%%%%%%%%%%%%%%%%%%%!   ",
"   !!!!!!!!!!!!!!!!!!!!!!!!!!   "};