/* XPM */ 
static const unsigned char * zq_icon_small_xpm[] = {
"16 16 153 2",
"  	c None",
"! 	c black",
"# 	c #5265C9",
"$ 	c #8694DA",
"% 	c #A5AFE2",
"& 	c #A4AFE1",
"' 	c #8492DA",
"( 	c #4E62C8",
") 	c #3C52C1",
"* 	c #99A5E2",
"+ 	c #C6CDF3",
", 	c #C6CEF6",
"- 	c #E2E6E1",
". 	c #E1E4DB",
"0 	c #C5CDF3",
"1 	c #93A0E0",
"2 	c #3A50C1",
"3 	c #344ABF",
"4 	c #9FABE6",
"5 	c #B3BDF3",
"6 	c #B4BFF9",
"7 	c #C0C9F1",
"8 	c #EDEEBA",
"9 	c #E9EAB4",
": 	c #C1C9ED",
"; 	c #B4BFF8",
"< 	c #9CA8E5",
"= 	c #354BBF",
"> 	c #6376D4",
"? 	c #9EABF0",
"@ 	c #A0AEF9",
"A 	c #A3B1FE",
"B 	c #DBDEC4",
"C 	c #ECECA0",
"D 	c #EBEBA0",
"E 	c #D6D9B9",
"F 	c #A3B1FD",
"G 	c #9DABEF",
"H 	c #6375D3",
"I 	c #2B43BE",
"J 	c #6E81E1",
"K 	c #899BF5",
"L 	c #8E9FFE",
"M 	c #B0BBE0",
"N 	c #E3E38F",
"O 	c #E7E794",
"P 	c #E6E691",
"Q 	c #DEDE8D",
"R 	c #AFBAD7",
"S 	c #8D9FFE",
"T 	c #899AF4",
"U 	c #6E81E0",
"V 	c #2B43BD",
"W 	c #2C45C4",
"X 	c #5D73E5",
"Y 	c #758AF9",
"Z 	c #8194FC",
"[ 	c #B6C1D2",
"] 	c #A3B0D4",
"^ 	c #A5B3DB",
"_ 	c #A4B2D9",
"` 	c #A3B1D2",
"a 	c #B3BEC9",
"b 	c #8194F9",
"c 	c #5C72E4",
"d 	c #2C45C2",
"e 	c #2D47C8",
"f 	c #415CE6",
"g 	c #627AFB",
"h 	c #A3B0C4",
"i 	c #CED182",
"j 	c #788EF9",
"k 	c #758CFF",
"l 	c #778EFC",
"m 	c #D0D48F",
"n 	c #A1ADB5",
"o 	c #627AFA",
"p 	c #415BE4",
"q 	c #2D46C6",
"r 	c #2D46C7",
"s 	c #3450E4",
"t 	c #556FEC",
"u 	c #D1D265",
"v 	c #C2C23F",
"w 	c #9CAAB1",
"x 	c #657FFF",
"y 	c #9DABBF",
"z 	c #D5D557",
"{ 	c #C4C556",
"| 	c #566FE5",
"} 	c #3450E3",
"~ 	c #334FDF",
" !	c #9BA794",
"!!	c #BFBF2A",
"#!	c #BDBD28",
"$!	c #BFC04A",
"%!	c #657EEA",
"&!	c #647EF1",
"'!	c #D2D463",
"(!	c #BFBF2C",
")!	c #B5B526",
"*!	c #97A182",
"+!	c #324EDE",
",!	c #2C44C1",
"-!	c #2B42BC",
".!	c #5166B5",
"0!	c #C4C53E",
"1!	c #ACAC1E",
"2!	c #B4B41F",
"3!	c #B8B825",
"4!	c #A2AC89",
"5!	c #A5B19D",
"6!	c #C5C531",
"7!	c #B2B21F",
"8!	c #ABAB1D",
"9!	c #B9B934",
":!	c #5367AD",
";!	c #3C52B5",
"<!	c #4B61BC",
"=!	c #4E66CA",
">!	c #566FD6",
"?!	c #5F77DD",
"@!	c #6179E0",
"A!	c #627AE8",
"B!	c #5E76DB",
"C!	c #546DD4",
"D!	c #4C64C9",
"E!	c #485EB8",
"F!	c #3B51B0",
"G!	c #2A41B9",
"H!	c #2B44C0",
"I!	c #324EDD",
"J!	c #3653ED",
"K!	c #3856F6",
"L!	c #3A58F9",
"M!	c #3856F5",
"N!	c #3653EC",
"O!	c #324DDC",
"P!	c #2B43BF",
"Q!	c #2940B8",
"R!	c #152168",
"S!	c #2940B7",
"T!	c #2E47CA",
"U!	c #324EDC",
"V!	c #2D47C9",
"W!	c #283FB5",
"X!	c #131E61",
"Y!	c #070B32",
"Z!	c #1A287A",
"[!	c #253AA7",
"]!	c #2439A4",
"^!	c #192676",
"_!	c #06092D",
"                                ",
"          # $ % & ' (           ",
"      ) * + , - . , 0 1 2       ",
"    3 4 5 6 7 8 9 : ; 5 < =     ",
"    > ? @ A B C D E F @ G H     ",
"  I J K L M N O P Q R S T U V   ",
"  W X Y Z [ ] ^ _ ` a b Y c d   ",
"  e f g h i j k k l m n o p q   ",
"  r s t u v w x x y z { | } q   ",
"  d ~  !!!#!$!%!&!'!(!)!*!+!,!  ",
"  -!.!0!1!2!3!4!5!6!7!8!9!:!-!  ",
"    ;!<!=!>!?!@!A!B!C!D!E!F!    ",
"    G!H!I!J!K!L!L!M!N!O!P!Q!    ",
"      R!S!T!I!} } U!V!W!X!      ",
"        Y!Z![!S!S!]!^!_!        ",
"                                "};