/* XPM */ 
static const unsigned char * zq_icon_xpm[] = {
"32 32 479 2",
"  	c None",
"! 	c black",
"# 	c #2E45BD",
"$ 	c #3047BE",
"% 	c #4F62C8",
"& 	c #6A7BD1",
"' 	c #7A89D6",
"( 	c #7988D6",
") 	c #6879D0",
"* 	c #4B5FC7",
"+ 	c #2F46BD",
", 	c #2D44BC",
"- 	c #5467CA",
". 	c #97A3E0",
"0 	c #C9CFF0",
"1 	c #D1D7F4",
"2 	c #D2D7F4",
"3 	c #DDE1EE",
"4 	c #DFE3EB",
"5 	c #C5CCEF",
"6 	c #8F9CDD",
"7 	c #2F45BD",
"8 	c #465BC5",
"9 	c #A1ACE3",
": 	c #C9D0F2",
"; 	c #CAD1F3",
"< 	c #CAD1F4",
"= 	c #CAD1F5",
"> 	c #CBD2F5",
"? 	c #F0F1DB",
"@ 	c #F0F1D6",
"A 	c #CCD3F4",
"B 	c #CAD0F3",
"C 	c #C9CFF1",
"D 	c #96A2E0",
"E 	c #3E53C2",
"F 	c #BCC4ED",
"G 	c #C1C9F1",
"H 	c #C1C9F3",
"I 	c #C2CAF5",
"J 	c #C2CBF7",
"K 	c #C2CBF8",
"L 	c #D9DEE4",
"M 	c #F5F5D0",
"N 	c #EFEFC6",
"O 	c #D9DDDC",
"P 	c #C2CAF7",
"Q 	c #B7C0EC",
"R 	c #5B6ECC",
"S 	c #2C43BC",
"T 	c #6E7FD3",
"U 	c #B6BFED",
"V 	c #B7C1F0",
"W 	c #B8C2F3",
"X 	c #B9C2F6",
"Y 	c #B9C3F8",
"Z 	c #BAC4FA",
"[ 	c #BEC8F5",
"] 	c #F0F1CC",
"^ 	c #EDEDB8",
"_ 	c #E6E6B3",
"` 	c #EDEDC3",
"a 	c #C0C9F2",
"b 	c #BAC4F9",
"c 	c #B7C0F0",
"d 	c #B5BEEC",
"e 	c #6475CF",
"f 	c #2B42BC",
"g 	c #4E62C9",
"h 	c #ABB6EA",
"i 	c #ADB8EE",
"j 	c #AEB9F3",
"k 	c #AFBAF6",
"l 	c #AFBBF9",
"m 	c #B0BCFB",
"n 	c #B0BDFD",
"o 	c #D8DDD8",
"p 	c #EEEEBA",
"q 	c #EBEBA9",
"r 	c #EDEDAB",
"s 	c #E5E5B0",
"t 	c #D8DCCC",
"u 	c #B0BCFD",
"v 	c #AEB9F2",
"w 	c #AAB5E9",
"x 	c #2B43BD",
"y 	c #8A99E0",
"z 	c #A2AEEC",
"{ 	c #A3B0F1",
"| 	c #A4B1F5",
"} 	c #A5B2F9",
"~ 	c #A6B4FC",
" !	c #A7B5FE",
"!!	c #B6C1F0",
"#!	c #EFEFB9",
"$!	c #E9E9A3",
"%!	c #EEEEA2",
"&!	c #EEEEA1",
"'!	c #E4E4A3",
"(!	c #E9E9AE",
")!	c #B8C2E6",
"*!	c #A6B3FC",
"+!	c #A3B0F0",
",!	c #A2AEEB",
"-!	c #8A98DF",
".!	c #4057C9",
"0!	c #97A4E8",
"1!	c #98A6EE",
"2!	c #99A8F4",
"3!	c #9AA9F9",
"4!	c #9CABFD",
"5!	c #9EADFE",
"6!	c #A1AFFE",
"7!	c #DDE0C4",
"8!	c #E8E8A3",
"9!	c #EBEB99",
":!	c #EEEE9F",
";!	c #EDED9F",
"<!	c #DDDD9A",
"=!	c #DBDDB4",
">!	c #A1B0FD",
"?!	c #9BABFC",
"@!	c #9AA9F8",
"A!	c #99A7F3",
"B!	c #98A6ED",
"C!	c #96A4E7",
"D!	c #4056C7",
"E!	c #2B43BE",
"F!	c #5469D4",
"G!	c #8C9CEA",
"H!	c #8E9EF1",
"I!	c #8FA0F7",
"J!	c #91A2FC",
"K!	c #94A4FE",
"L!	c #97A7FF",
"M!	c #B5C0DF",
"N!	c #EBEBA6",
"O!	c #E7E790",
"P!	c #EDED9E",
"Q!	c #EFEFA4",
"R!	c #EDED9A",
"S!	c #E3E399",
"T!	c #E2E29A",
"U!	c #B6BFD0",
"V!	c #93A4FE",
"W!	c #90A1FB",
"X!	c #8F9FF6",
"Y!	c #8E9DF0",
"Z!	c #8C9BE9",
"[!	c #5469D3",
"]!	c #2C45C3",
"^!	c #576DDA",
"_!	c #8293EC",
"`!	c #8395F3",
"a!	c #8597FA",
"b!	c #879AFE",
"c!	c #8C9EFF",
"d!	c #93A4FB",
"e!	c #E1E4A8",
"f!	c #E1E188",
"g!	c #DBDB7D",
"h!	c #DEDE85",
"i!	c #E0E089",
"j!	c #DFDF87",
"k!	c #DDDD83",
"l!	c #D5D57D",
"m!	c #DADC99",
"n!	c #94A5F6",
"o!	c #8597F9",
"p!	c #8395F2",
"q!	c #8293EB",
"r!	c #576CD8",
"s!	c #2C44C1",
"t!	c #2D47C8",
"u!	c #4F66DC",
"v!	c #788AED",
"w!	c #7A8DF5",
"x!	c #7B90FC",
"y!	c #8093FF",
"z!	c #8597FF",
"{!	c #ABB8E4",
"|!	c #CED4BE",
"}!	c #C3C9AA",
"~!	c #C4CAAA",
" #	c #C7CDB4",
"!#	c #C9D0BA",
"##	c #C8CEB7",
"$#	c #C5CCAF",
"%#	c #C3C9A5",
"&#	c #C6CCA5",
"'#	c #C4CAA9",
"(#	c #ABB7CF",
")#	c #8497FF",
"*#	c #7F93FE",
"+#	c #7B8FFB",
",#	c #798DF4",
"-#	c #778AEC",
".#	c #4E65DB",
"0#	c #2D46C6",
"1#	c #2E48CC",
"2#	c #3F59DD",
"3#	c #6D82EE",
"4#	c #6F85F7",
"5#	c #7288FD",
"6#	c #778DFF",
"7#	c #8799F3",
"8#	c #DCDFAD",
"9#	c #859AF9",
":#	c #8296FF",
";#	c #8297FF",
"<#	c #8196FF",
"=#	c #8398FC",
">#	c #DADEB0",
"?#	c #8A9BEA",
"@#	c #778CFF",
"A#	c #7187FD",
"B#	c #6F84F6",
"C#	c #6D82ED",
"D#	c #3F58DB",
"E#	c #2E48CA",
"F#	c #2B42BD",
"G#	c #2B44BF",
"H#	c #2F49CF",
"I#	c #334FDE",
"J#	c #5D74EE",
"K#	c #657DF8",
"L#	c #6880FE",
"M#	c #6F85FF",
"N#	c #BCC5B4",
"O#	c #EBEB93",
"P#	c #ABB6B1",
"Q#	c #798FFF",
"R#	c #ABB7C9",
"S#	c #ECEC95",
"T#	c #BAC199",
"U#	c #6E85FF",
"V#	c #687FFE",
"W#	c #657CF7",
"X#	c #5D74ED",
"Y#	c #334EDC",
"Z#	c #2F49CD",
"[#	c #2B44C0",
"]#	c #2F4AD0",
"^#	c #334FDF",
"_#	c #435EED",
"`#	c #5B74F8",
"a#	c #5F78FE",
"b#	c #8093E2",
"c#	c #E2E27C",
"d#	c #C8C84F",
"e#	c #DADA74",
"f#	c #7E93EA",
"g#	c #7088FF",
"h#	c #7A90F3",
"i#	c #DEDF88",
"j#	c #CDCD56",
"k#	c #DADA6E",
"l#	c #8394D0",
"m#	c #5B74F7",
"n#	c #425DEB",
"o#	c #324EDD",
"p#	c #2F49CE",
"q#	c #2B43BF",
"r#	c #3652EB",
"s#	c #4965F7",
"t#	c #5771FE",
"u#	c #C7CD96",
"v#	c #D6D65A",
"w#	c #C5C53E",
"x#	c #C6C655",
"y#	c #B4BC94",
"z#	c #6882FF",
"{#	c #B4BEAE",
"|#	c #DBDB6B",
"}#	c #D9D95B",
"~#	c #C1C14B",
" $	c #C3C87C",
"!$	c #5771FB",
"#$	c #4965F6",
"$$	c #3552EA",
"%$	c #3856F6",
"&$	c #7D90C6",
"'$	c #DCDC67",
"($	c #C9C93C",
")$	c #C6C636",
"*$	c #B7B735",
"+$	c #D7D760",
",$	c #7E92D0",
"-$	c #627CFF",
".$	c #7A90E4",
"0$	c #DDDE6D",
"1$	c #DDDD61",
"2$	c #C3C335",
"3$	c #BABA34",
"4$	c #D0D05D",
"5$	c #8090AD",
"6$	c #3856F4",
"7$	c #3552E9",
"8$	c #324EDB",
"9$	c #2E48CB",
":$	c #324DDA",
";$	c #3551E8",
"<$	c #3E5BEC",
"=$	c #CED175",
">$	c #CCCC39",
"?$	c #BCBC2B",
"@$	c #C0C02D",
"A$	c #C1C12D",
"B$	c #BABA3C",
"C$	c #C1C676",
"D$	c #5C78FD",
"E$	c #5B76FF",
"F$	c #5B77FE",
"G$	c #C3CA92",
"H$	c #D7D75A",
"I$	c #CCCC3C",
"J$	c #BDBD2C",
"K$	c #BBBB2B",
"L$	c #B1B12D",
"M$	c #C8CB5B",
"N$	c #425EE4",
"O$	c #3451E6",
"P$	c #314DD9",
"Q$	c #2D47C9",
"R$	c #2D46C5",
"S$	c #314CD6",
"T$	c #3450E4",
"U$	c #8C9BA2",
"V$	c #D5D54E",
"W$	c #BDBD23",
"X$	c #B7B720",
"Y$	c #B9B923",
"Z$	c #BBBB25",
"[$	c #B2B224",
"]$	c #CFCF52",
"^$	c #8798B0",
"_$	c #5672FF",
"`$	c #8598CA",
"a$	c #D8D85B",
"b$	c #D5D546",
"c$	c #BABA25",
"d$	c #B8B823",
"e$	c #B2B21F",
"f$	c #C4C444",
"g$	c #8D9A87",
"h$	c #3450E3",
"i$	c #314BD5",
"j$	c #475FCC",
"k$	c #D7D863",
"l$	c #C7C72A",
"m$	c #B8B820",
"n$	c #AFAF28",
"o$	c #CCCF60",
"p$	c #5A75F3",
"q$	c #5672F8",
"r$	c #CFD376",
"s$	c #D4D443",
"t$	c #BDBD24",
"u$	c #BABA20",
"v$	c #ABAB22",
"w$	c #D2D251",
"x$	c #4D64BF",
"y$	c #2A42BC",
"z$	c #A1AA72",
"{$	c #D1D14E",
"|$	c #A2A21D",
"}$	c #9D9D1B",
"~$	c #A4A41C",
" %	c #ADAD1E",
"!%	c #B7B721",
"#%	c #BFBF27",
"$%	c #B9B926",
"%%	c #C7C742",
"&%	c #9AA792",
"'%	c #95A4AE",
"(%	c #DADA57",
")%	c #C7C738",
"*%	c #BBBB24",
"+%	c #B1B11F",
",%	c #A7A71D",
"-%	c #A0A01B",
".%	c #9B9B1B",
"0%	c #A6A621",
"1%	c #BFBF39",
"2%	c #A4AB63",
"3%	c #2E45B8",
"4%	c #6F7FA3",
"5%	c #697B9F",
"6%	c #5F719D",
"7%	c #6375A3",
"8%	c #677BAA",
"9%	c #6E81AF",
":%	c #7789B2",
";%	c #7D8FB7",
"<%	c #8092C0",
"=%	c #8193C6",
">%	c #7B8EBE",
"?%	c #7D90D0",
"@%	c #8496D2",
"A%	c #7F91BD",
"B%	c #7B8DB3",
"C%	c #7386B0",
"D%	c #6B7EAD",
"E%	c #6578A8",
"F%	c #6173A2",
"G%	c #5D6F9C",
"H%	c #607296",
"I%	c #697997",
"J%	c #3046B4",
"K%	c #2A42BB",
"L%	c #304BD3",
"M%	c #3755F2",
"N%	c #3957F9",
"O%	c #3B5AFD",
"P%	c #3F5DFE",
"Q%	c #425FFF",
"R%	c #4461FF",
"S%	c #4562FF",
"T%	c #4462FF",
"U%	c #4361FF",
"V%	c #3E5CFE",
"W%	c #3B59FD",
"X%	c #3857F8",
"Y%	c #3754F1",
"Z%	c #334EDE",
"[%	c #304AD1",
"]%	c #2A41B9",
"^%	c #2A43BD",
"_%	c #304BD4",
"`%	c #3754EF",
"a%	c #3856F5",
"b%	c #3958FA",
"c%	c #3A59FC",
"d%	c #3C5AFE",
"e%	c #3654EE",
"f%	c #3551E7",
"g%	c #304AD2",
"h%	c #2A41BA",
"i%	c #293FB6",
"j%	c #2940B7",
"k%	c #324EDC",
"l%	c #3654EF",
"m%	c #3755F3",
"n%	c #2941B8",
"o%	c #293FB5",
"p%	c #1B297E",
"q%	c #283FB3",
"r%	c #2D45C5",
"s%	c #314CD7",
"t%	c #2C44C2",
"u%	c #283EB2",
"v%	c #2940B8",
"w%	c #182572",
"x%	c #101955",
"y%	c #283DB0",
"z%	c #283FB2",
"{%	c #2F49D0",
"|%	c #314DD8",
"}%	c #2B43C0",
"~%	c #273EB1",
" &	c #263BAB",
"!&	c #0C1346",
"#&	c #040625",
"$&	c #192779",
"%&	c #273DAE",
"&&	c #273DB0",
"'&	c #2940B6",
"(&	c #273DAF",
")&	c #283FB4",
"*&	c #17236E",
"+&	c #02041F",
",&	c #030523",
"-&	c #121C5D",
".&	c #1F308E",
"0&	c #293FB4",
"1&	c #263CAC",
"2&	c #1D2D88",
"3&	c #101956",
"4&	c #02031E",
"                                                                ",
"                                                                ",
"                      # $ % & ' ( ) * + +                       ",
"                  , - . 0 1 2 3 4 2 1 5 6 * #                   ",
"              7 8 9 : ; < = > ? @ A = < B C D E                 ",
"            , ) F G H I J K L M N O K P I H G Q R +             ",
"          S T U V W X Y Z [ ] ^ _ ` a b Y X W c d e 7           ",
"        f g h i j k l m n o p q r s t u m l k v i w *           ",
"        x y z { | } ~  !!!#!$!%!&!'!(!)! !*!} | +!,!-!x         ",
"      f .!0!1!2!3!4!5!6!7!8!9!&!:!;!<!=!>!5!?!@!A!B!C!D!f       ",
"      E!F!G!H!I!J!K!L!M!N!O!P!Q!&!R!S!T!U!L!V!W!X!Y!Z![!x       ",
"    f ]!^!_!`!a!b!c!d!e!f!g!h!i!j!k!h!l!m!n!c!b!o!p!q!r!s!f     ",
"    f t!u!v!w!x!y!z!{!|!}!~! #!###$#%#&#'#(#)#*#+#,#-#.#0#f     ",
"    E!1#2#3#4#5#6#7#8#9#:#;#;#;#;#;#;#<#=#>#?#@#A#B#C#D#E#F#    ",
"    G#H#I#J#K#L#M#N#O#P#Q#Q#Q#Q#Q#Q#Q#Q#R#S#T#U#V#W#X#Y#Z#E!    ",
"    [#]#^#_#`#a#b#c#d#e#f#g#g#g#g#g#g#h#i#j#k#l#a#m#n#o#p#q#    ",
"    [#]#^#r#s#t#u#v#w#x#y#z#z#z#z#z#z#{#|#}#~# $!$#$$$o#p#q#    ",
"    q#p#o#$$%$&$'$($)$*$+$,$-$-$-$-$.$0$1$2$3$4$5$6$7$8$1#E!    ",
"    x 9$:$;$<$=$>$?$@$A$B$C$D$E$E$F$G$H$I$J$K$L$M$N$O$P$Q$f     ",
"    f R$S$T$U$V$W$X$Y$Z$[$]$^$_$_$`$a$b$c$d$X$e$f$g$h$i$]!f     ",
"    f q#]#j$k$l$m$X$X$X$m$n$o$p$q$r$s$t$X$X$m$u$v$w$x$p#E!      ",
"      y$0#z${$|$}$~$ %!%#%$%%%&%'%(%)%*%+%,%-%.%0%1%2%]!y$      ",
"      y$3%4%5%6%7%8%9%:%;%<%=%>%?%@%A%B%C%D%E%F%G%H%I%J%y$      ",
"        K%y$L%^#7$M%N%O%P%Q%R%S%T%U%Q%V%W%X%Y%;$Z%[%K%K%        ",
"          ]%^%_%^#;$`%a%b%c%O%d%d%O%c%N%a%e%f%Z%g%K%h%          ",
"          i%j%h%[%k%T$$$l%m%a%%$%$6$M%l%$$h$8$p#j%n%o%          ",
"            p%j%q%r%s%Z%h$f%7$$$$$7$O$h$o#i$t%u%v%w%            ",
"              x%y%z%u%t%{%P$k%o#o#8$|%p#}%~%q% &!&              ",
"                #&$&o%q%%&&&'&h%h%i%(&(&)&u%*&+&                ",
"                    ,&-&.&(&j%0&o%j%1&2&3&4&                    ",
"                                                                ",
"                                                                "};